<svg width="1240" height="841" viewBox="0 0 1240 841" fill="none" xmlns="http://www.w3.org/2000/svg">
<path d="M24 833V841L20 837L24 833Z" fill="white"/>
<path d="M6 818.999L22 834.999" stroke="white" stroke-width="5.66"/>
<path d="M8 817L0 817L4 821L8 817Z" fill="white"/>
<rect y="817" width="30" height="3.9999" transform="rotate(-90 0 817)" fill="white"/>
<path d="M8 817H4L4 813L8 817Z" fill="white"/>
<rect x="54" y="841" width="2" height="32" transform="rotate(-90 54 841)" fill="white"/>
<path d="M56 839H54V837L56 839Z" fill="white"/>
<path d="M86 839H84L86 837V839Z" fill="white"/>
<rect y="787" width="30" height="1.9999" transform="rotate(-90 0 787)" fill="white"/>
<path d="M4 787H2L2 785L4 787Z" fill="white"/>
<path d="M4 757H2L2 759L4 757Z" fill="white"/>
<rect x="24" y="841" width="4" height="30" transform="rotate(-90 24 841)" fill="white"/>
<path d="M28 837H24V833L28 837Z" fill="white"/>
<path d="M0 757L4 757L2 755L0 757Z" fill="white"/>
<path d="M3 756L5 754" stroke="white" stroke-width="2.83"/>
<path d="M4 753.001L8 753.001L6 755.001L4 753.001Z" fill="white"/>
<path d="M86 837V841L88 839L86 837Z" fill="white"/>
<path d="M87 838L97 828" stroke="white" stroke-width="2.83"/>
<path d="M98 825.001V829.001L96 827.001L98 825.001Z" fill="white"/>
<rect x="98" y="827" width="2" height="27" transform="rotate(-90 98 827)" fill="white"/>
<path d="M100 827H98V829L100 827Z" fill="white"/>
<path d="M127.412 825H125V827L127.412 825Z" fill="white"/>
<path d="M2 636L4 636L3 635L2 636Z" fill="white"/>
<path d="M3.5 635.499L7.5 631.499" stroke="white" stroke-width="1.41"/>
<path d="M7 631L9 631L8 632L7 631Z" fill="white"/>
<path d="M7 631L13 631L10 628L7 631Z" fill="white"/>
<path d="M11.5 629.499L20.5 620.499" stroke="white" stroke-width="4.24"/>
<path d="M19 619L25 619L22 622L19 619Z" fill="white"/>
<rect x="2" y="749" width="113" height="0.9999" transform="rotate(-90 2 749)" fill="white"/>
<path d="M4 636H3V637L4 636Z" fill="white"/>
<path d="M3 749H2V750L3 749Z" fill="white"/>
<rect x="6" y="753" width="115" height="1.9999" transform="rotate(-90 6 753)" fill="white"/>
<path d="M6 753H4L6 751V753Z" fill="white"/>
<path d="M8 638H6L8 636V638Z" fill="white"/>
<g opacity="0.4">
<path d="M104 837H100L104 833V837Z" fill="white"/>
<rect x="104" y="837" width="4" height="13" transform="rotate(-90 104 837)" fill="white"/>
<path d="M121 833H117V837L121 833Z" fill="white"/>
</g>
<path d="M1216 833V841L1220 837L1216 833Z" fill="white"/>
<path d="M1234 818.999L1218 834.999" stroke="white" stroke-width="5.66"/>
<path d="M1232 817L1240 817L1236 821L1232 817Z" fill="white"/>
<rect width="30" height="3.9999" transform="matrix(0 -1 -1 0 1240 817)" fill="white"/>
<path d="M1232 817H1236V813L1232 817Z" fill="white"/>
<rect width="2" height="32" transform="matrix(0 -1 -1 0 1186 841)" fill="white"/>
<path d="M1184 839H1186V837L1184 839Z" fill="white"/>
<path d="M1154 839H1156L1154 837V839Z" fill="white"/>
<rect width="30" height="1.9999" transform="matrix(0 -1 -1 0 1240 787)" fill="white"/>
<path d="M1236 787H1238V785L1236 787Z" fill="white"/>
<path d="M1236 757H1238V759L1236 757Z" fill="white"/>
<rect width="4" height="30" transform="matrix(0 -1 -1 0 1216 841)" fill="white"/>
<path d="M1212 837H1216V833L1212 837Z" fill="white"/>
<path d="M1240 757L1236 757L1238 755L1240 757Z" fill="white"/>
<path d="M1237 756L1235 754" stroke="white" stroke-width="2.83"/>
<path d="M1236 753.001L1232 753.001L1234 755.001L1236 753.001Z" fill="white"/>
<path d="M1154 837V841L1152 839L1154 837Z" fill="white"/>
<path d="M1153 838L1143 828" stroke="white" stroke-width="2.83"/>
<path d="M1142 825.001V829.001L1144 827.001L1142 825.001Z" fill="white"/>
<rect width="2" height="27" transform="matrix(0 -1 -1 0 1142 827)" fill="white"/>
<path d="M1140 827H1142V829L1140 827Z" fill="white"/>
<path d="M1112.59 825H1115V827L1112.59 825Z" fill="white"/>
<path d="M1238 636L1236 636L1237 635L1238 636Z" fill="white"/>
<path d="M1236.5 635.499L1232.5 631.499" stroke="white" stroke-width="1.41"/>
<path d="M1233 631L1231 631L1232 632L1233 631Z" fill="white"/>
<path d="M1233 631L1227 631L1230 628L1233 631Z" fill="white"/>
<path d="M1228.5 629.499L1219.5 620.499" stroke="white" stroke-width="4.24"/>
<path d="M1221 619L1215 619L1218 622L1221 619Z" fill="white"/>
<rect width="113" height="0.9999" transform="matrix(0 -1 -1 0 1238 749)" fill="white"/>
<path d="M1236 636H1237V637L1236 636Z" fill="white"/>
<path d="M1237 749H1238V750L1237 749Z" fill="white"/>
<rect width="115" height="1.9999" transform="matrix(0 -1 -1 0 1234 753)" fill="white"/>
<path d="M1234 753H1236L1234 751V753Z" fill="white"/>
<path d="M1232 638H1234L1232 636V638Z" fill="white"/>
<g opacity="0.4">
<path d="M1136 837H1140L1136 833V837Z" fill="white"/>
<rect width="4" height="13" transform="matrix(0 -1 -1 0 1136 837)" fill="white"/>
<path d="M1119 833H1123V837L1119 833Z" fill="white"/>
</g>
<path d="M24 8V0L20 4L24 8Z" fill="white"/>
<path d="M6 22.001L22 6.00098" stroke="white" stroke-width="5.66"/>
<path d="M8 23.9999L0 23.9999L4 19.9999L8 23.9999Z" fill="white"/>
<rect width="30" height="3.9999" transform="matrix(0 1 1 0 0 24)" fill="white"/>
<path d="M8 24H4L4 28L8 24Z" fill="white"/>
<rect width="2" height="32" transform="matrix(0 1 1 0 54 0)" fill="white"/>
<path d="M56 2L54 2V4L56 2Z" fill="white"/>
<path d="M86 2L84 2L86 4V2Z" fill="white"/>
<rect width="30" height="1.9999" transform="matrix(0 1 1 0 0 54)" fill="white"/>
<path d="M4 54H2L2 56L4 54Z" fill="white"/>
<path d="M4 84H2L2 82L4 84Z" fill="white"/>
<rect width="4" height="30" transform="matrix(0 1 1 0 24 0)" fill="white"/>
<path d="M28 4L24 4V8L28 4Z" fill="white"/>
<path d="M0 84L4 84L2 86L0 84Z" fill="white"/>
<path d="M3 85.0001L5 87.0001" stroke="white" stroke-width="2.83"/>
<path d="M4 87.999L8 87.999L6 85.999L4 87.999Z" fill="white"/>
<path d="M86 4V0L88 2L86 4Z" fill="white"/>
<path d="M87 3.00012L97 13.0001" stroke="white" stroke-width="2.83"/>
<path d="M98 15.999V11.999L96 13.999L98 15.999Z" fill="white"/>
<rect width="2" height="27" transform="matrix(0 1 1 0 98 14)" fill="white"/>
<path d="M100 14H98V12L100 14Z" fill="white"/>
<path d="M127.412 15.9999H125V14L127.412 15.9999Z" fill="white"/>
<path d="M2 205L4 205L3 206L2 205Z" fill="white"/>
<path d="M3.5 205.501L7.5 209.501" stroke="white" stroke-width="1.41"/>
<path d="M7 210L9 210L8 209L7 210Z" fill="white"/>
<path d="M7 210L13 210L10 213L7 210Z" fill="white"/>
<path d="M11.5 211.501L20.5 220.501" stroke="white" stroke-width="4.24"/>
<path d="M19 222L25 222L22 219L19 222Z" fill="white"/>
<rect width="113" height="0.9999" transform="matrix(0 1 1 0 2 92)" fill="white"/>
<path d="M4 205H3V204L4 205Z" fill="white"/>
<path d="M3 92H2L2 91L3 92Z" fill="white"/>
<rect width="115" height="1.9999" transform="matrix(0 1 1 0 6 88)" fill="white"/>
<path d="M6 88H4L6 90V88Z" fill="white"/>
<path d="M8 203H6L8 205V203Z" fill="white"/>
<g opacity="0.4">
<path d="M104 4L100 4L104 8V4Z" fill="white"/>
<rect width="4" height="13" transform="matrix(0 1 1 0 104 4)" fill="white"/>
<path d="M121 8H117V4L121 8Z" fill="white"/>
</g>
<path d="M1216 8V0L1220 4L1216 8Z" fill="white"/>
<path d="M1234 22.001L1218 6.00098" stroke="white" stroke-width="5.66"/>
<path d="M1232 23.9999L1240 23.9999L1236 19.9999L1232 23.9999Z" fill="white"/>
<rect x="1240" y="24" width="30" height="3.9999" transform="rotate(90 1240 24)" fill="white"/>
<path d="M1232 24H1236V28L1232 24Z" fill="white"/>
<rect x="1186" width="2" height="32" transform="rotate(90 1186 0)" fill="white"/>
<path d="M1184 2L1186 2V4L1184 2Z" fill="white"/>
<path d="M1154 2L1156 2L1154 4V2Z" fill="white"/>
<rect x="1240" y="54" width="30" height="1.9999" transform="rotate(90 1240 54)" fill="white"/>
<path d="M1236 54H1238V56L1236 54Z" fill="white"/>
<path d="M1236 84H1238V82L1236 84Z" fill="white"/>
<rect x="1216" width="4" height="30" transform="rotate(90 1216 0)" fill="white"/>
<path d="M1212 4L1216 4V8L1212 4Z" fill="white"/>
<path d="M1240 84L1236 84L1238 86L1240 84Z" fill="white"/>
<path d="M1237 85.0001L1235 87.0001" stroke="white" stroke-width="2.83"/>
<path d="M1236 87.999L1232 87.999L1234 85.999L1236 87.999Z" fill="white"/>
<path d="M1154 4V0L1152 2L1154 4Z" fill="white"/>
<path d="M1153 3.00012L1143 13.0001" stroke="white" stroke-width="2.83"/>
<path d="M1142 15.999V11.999L1144 13.999L1142 15.999Z" fill="white"/>
<rect x="1142" y="14" width="2" height="27" transform="rotate(90 1142 14)" fill="white"/>
<path d="M1140 14H1142V12L1140 14Z" fill="white"/>
<path d="M1112.59 15.9999H1115V14L1112.59 15.9999Z" fill="white"/>
<path d="M1238 205L1236 205L1237 206L1238 205Z" fill="white"/>
<path d="M1236.5 205.501L1232.5 209.501" stroke="white" stroke-width="1.41"/>
<path d="M1233 210L1231 210L1232 209L1233 210Z" fill="white"/>
<path d="M1233 210L1227 210L1230 213L1233 210Z" fill="white"/>
<path d="M1228.5 211.501L1219.5 220.501" stroke="white" stroke-width="4.24"/>
<path d="M1221 222L1215 222L1218 219L1221 222Z" fill="white"/>
<rect x="1238" y="92" width="113" height="0.9999" transform="rotate(90 1238 92)" fill="white"/>
<path d="M1236 205H1237V204L1236 205Z" fill="white"/>
<path d="M1237 92H1238V91L1237 92Z" fill="white"/>
<rect x="1234" y="88" width="115" height="1.9999" transform="rotate(90 1234 88)" fill="white"/>
<path d="M1234 88H1236L1234 90V88Z" fill="white"/>
<path d="M1232 203H1234L1232 205V203Z" fill="white"/>
<g opacity="0.4">
<path d="M1136 4L1140 4L1136 8V4Z" fill="white"/>
<rect x="1136" y="4" width="4" height="13" transform="rotate(90 1136 4)" fill="white"/>
<path d="M1119 8L1123 8V4L1119 8Z" fill="white"/>
</g>
</svg>
