<svg width="1920" height="1080" viewBox="0 0 1920 1080" fill="none" xmlns="http://www.w3.org/2000/svg">
<g clip-path="url(#clip0_47_10119)">
<path opacity="0.0526316" d="M-297.219 1173.21C-246.495 1232.81 -84.3742 1332.53 158.313 1254.67C461.672 1157.35 578.998 899.37 849.75 765.605C1049.59 666.875 1586.55 518.678 1895.32 682.438" stroke="url(#paint0_linear_47_10119)" stroke-opacity="0.3" stroke-width="2"/>
<path opacity="0.105263" d="M-347.251 1048.28C-303.859 1112.23 -154.431 1226.37 96.1429 1171.34C409.36 1102.55 556.58 856.817 841.683 748.776C1052.11 669.034 1603.68 571.214 1891.36 762.579" stroke="url(#paint1_linear_47_10119)" stroke-opacity="0.3" stroke-width="2"/>
<path opacity="0.157895" d="M-385.048 921.663C-349.463 989.268 -214.364 1116.58 41.3511 1084.98C360.995 1045.48 536.495 814.678 832.825 733.547C1051.54 673.665 1611.66 627.294 1875.12 844.166" stroke="url(#paint2_linear_47_10119)" stroke-opacity="0.3" stroke-width="2"/>
<path opacity="0.210526" d="M-410.481 794.497C-383.094 865.016 -263.804 1004.1 -5.74978 996.277C316.818 986.499 518.677 773.163 822.986 719.829C1047.59 680.464 1610.13 686.051 1846.48 926.054" stroke="url(#paint3_linear_47_10119)" stroke-opacity="0.3" stroke-width="2"/>
<path opacity="0.263158" d="M-423.552 667.929C-404.661 740.59 -302.488 889.923 -44.9216 905.964C277.037 926.014 503.042 732.48 811.997 707.528C1040.03 689.112 1598.83 746.594 1805.47 1007.1" stroke="url(#paint4_linear_47_10119)" stroke-opacity="0.3" stroke-width="2"/>
<path opacity="0.315789" d="M-424.391 543.096C-414.205 617.103 -330.268 775.049 -76.0108 814.777C241.811 864.437 489.486 692.825 799.702 696.528C1028.67 699.262 1577.6 808.01 1752.28 1086.16" stroke="url(#paint5_linear_47_10119)" stroke-opacity="0.3" stroke-width="2"/>
<path opacity="0.368421" d="M-413.28 421.118C-411.91 495.66 -347.128 660.488 -98.9665 723.469C211.236 802.194 477.867 654.384 785.946 686.702C1013.33 710.555 1546.39 869.379 1687.18 1162.13" stroke="url(#paint6_linear_47_10119)" stroke-opacity="0.3" stroke-width="2"/>
<path opacity="0.421053" d="M-390.619 303.083C-398.079 377.343 -353.163 547.248 -113.816 632.79C185.369 739.718 468.036 617.329 770.602 677.909C993.918 722.62 1505.25 929.779 1610.63 1233.92" stroke="url(#paint7_linear_47_10119)" stroke-opacity="0.3" stroke-width="2"/>
<path opacity="0.473684" d="M-356.939 190.035C-373.148 263.199 -348.59 436.32 -120.679 543.487C164.209 677.446 459.815 581.82 753.553 669.996C970.353 735.076 1454.37 988.3 1523.16 1300.51" stroke="url(#paint8_linear_47_10119)" stroke-opacity="0.3" stroke-width="2"/>
<path opacity="0.526316" d="M-312.894 82.9626C-337.675 154.23 -333.743 328.669 -119.766 456.287C147.706 615.809 453.011 547.993 734.702 662.801C942.611 747.537 1394 1044.05 1425.46 1360.9" stroke="url(#paint9_linear_47_10119)" stroke-opacity="0.3" stroke-width="2"/>
<path opacity="0.578947" d="M-259.238 -17.2108C-292.319 51.3788 -309.057 225.225 -111.358 371.895C135.766 555.233 447.426 515.971 713.984 656.151C910.725 759.615 1324.54 1096.17 1318.33 1414.18" stroke="url(#paint10_linear_47_10119)" stroke-opacity="0.3" stroke-width="2"/>
<path opacity="0.631579" d="M-196.848 -109.63C-237.866 -44.47 -275.09 126.879 -95.8351 290.995C128.234 496.139 442.834 485.861 691.339 649.878C874.755 770.936 1246.47 1143.85 1202.64 1459.54" stroke="url(#paint11_linear_47_10119)" stroke-opacity="0.3" stroke-width="2"/>
<path opacity="0.684211" d="M-126.686 -193.537C-175.193 -132.52 -232.495 34.4542 -73.6477 214.217C124.911 438.921 439.004 457.739 666.734 643.796C834.816 781.121 1160.35 1186.3 1079.4 1496.22" stroke="url(#paint12_linear_47_10119)" stroke-opacity="0.3" stroke-width="2"/>
<path opacity="0.736842" d="M-49.808 -268.262C-105.272 -212.057 -182.024 -51.286 -45.3256 142.155C125.547 383.956 435.693 431.664 640.152 637.723C791.058 789.811 1066.85 1222.82 949.657 1523.57" stroke="url(#paint13_linear_47_10119)" stroke-opacity="0.3" stroke-width="2"/>
<path opacity="0.789474" d="M32.6688 -333.229C-29.1439 -282.451 -124.506 -129.647 -11.4537 75.353C129.862 331.602 432.661 407.677 611.609 631.481C743.686 796.665 966.714 1252.76 814.562 1541.05" stroke="url(#paint14_linear_47_10119)" stroke-opacity="0.3" stroke-width="2"/>
<path opacity="0.842105" d="M119.557 -387.981C52.0726 -343.187 -60.8544 -200.022 27.3132 14.2901C137.523 282.18 429.659 385.788 581.135 624.884C692.936 801.355 860.755 1275.54 675.313 1548.2" stroke="url(#paint15_linear_47_10119)" stroke-opacity="0.3" stroke-width="2"/>
<path opacity="0.894737" d="M209.615 -432.164C137.198 -393.845 7.94385 -261.888 70.2608 -40.6111C148.157 235.985 426.429 365.991 548.774 617.76C639.074 803.584 749.846 1290.66 533.144 1544.71" stroke="url(#paint16_linear_47_10119)" stroke-opacity="0.3" stroke-width="2"/>
<path opacity="0.947368" d="M301.592 -465.542C225.036 -434.118 80.8702 -314.814 116.654 -88.9978C161.383 193.273 422.742 348.254 514.615 609.937C582.425 803.078 634.936 1297.71 389.35 1530.37" stroke="url(#paint17_linear_47_10119)" stroke-opacity="0.3" stroke-width="2"/>
<path d="M394.179 -488C314.323 -463.814 156.825 -358.472 165.683 -130.59C176.755 154.264 418.337 332.521 478.733 601.251C523.309 799.593 516.983 1296.36 245.203 1505.08" stroke="url(#paint18_linear_47_10119)" stroke-opacity="0.3" stroke-width="2"/>
</g>
<defs>
<linearGradient id="paint0_linear_47_10119" x1="-278.132" y1="1225.09" x2="1812.02" y2="456.043" gradientUnits="userSpaceOnUse">
<stop stop-color="#7500EB"/>
<stop offset="0.489583" stop-color="#268AFF"/>
<stop offset="1" stop-color="#0997FF"/>
</linearGradient>
<linearGradient id="paint1_linear_47_10119" x1="-334.409" y1="1101.63" x2="1846.62" y2="576.663" gradientUnits="userSpaceOnUse">
<stop stop-color="#7500EB"/>
<stop offset="0.489583" stop-color="#268AFF"/>
<stop offset="1" stop-color="#0997FF"/>
</linearGradient>
<linearGradient id="paint2_linear_47_10119" x1="-378.591" y1="975.91" x2="1859.1" y2="709.579" gradientUnits="userSpaceOnUse">
<stop stop-color="#7500EB"/>
<stop offset="0.489583" stop-color="#268AFF"/>
<stop offset="1" stop-color="#0997FF"/>
</linearGradient>
<linearGradient id="paint3_linear_47_10119" x1="-410.481" y1="849.042" x2="1846.48" y2="849.042" gradientUnits="userSpaceOnUse">
<stop stop-color="#7500EB"/>
<stop offset="0.489583" stop-color="#268AFF"/>
<stop offset="1" stop-color="#0997FF"/>
</linearGradient>
<linearGradient id="paint4_linear_47_10119" x1="-430.008" y1="722.176" x2="1807.69" y2="988.507" gradientUnits="userSpaceOnUse">
<stop stop-color="#7500EB"/>
<stop offset="0.489583" stop-color="#268AFF"/>
<stop offset="1" stop-color="#0997FF"/>
</linearGradient>
<linearGradient id="paint5_linear_47_10119" x1="-437.233" y1="596.45" x2="1743.79" y2="1121.42" gradientUnits="userSpaceOnUse">
<stop stop-color="#7500EB"/>
<stop offset="0.489583" stop-color="#268AFF"/>
<stop offset="1" stop-color="#0997FF"/>
</linearGradient>
<linearGradient id="paint6_linear_47_10119" x1="-432.367" y1="472.994" x2="1657.78" y2="1242.04" gradientUnits="userSpaceOnUse">
<stop stop-color="#7500EB"/>
<stop offset="0.489583" stop-color="#268AFF"/>
<stop offset="1" stop-color="#0997FF"/>
</linearGradient>
<linearGradient id="paint7_linear_47_10119" x1="-415.742" y1="352.913" x2="1554.09" y2="1346.06" gradientUnits="userSpaceOnUse">
<stop stop-color="#7500EB"/>
<stop offset="0.489583" stop-color="#268AFF"/>
<stop offset="1" stop-color="#0997FF"/>
</linearGradient>
<linearGradient id="paint8_linear_47_10119" x1="-387.823" y1="237.273" x2="1437.9" y2="1430.91" gradientUnits="userSpaceOnUse">
<stop stop-color="#7500EB"/>
<stop offset="0.489583" stop-color="#268AFF"/>
<stop offset="1" stop-color="#0997FF"/>
</linearGradient>
<linearGradient id="paint9_linear_47_10119" x1="-349.2" y1="127.091" x2="1314.44" y2="1495.83" gradientUnits="userSpaceOnUse">
<stop stop-color="#7500EB"/>
<stop offset="0.489583" stop-color="#268AFF"/>
<stop offset="1" stop-color="#0997FF"/>
</linearGradient>
<linearGradient id="paint10_linear_47_10119" x1="-300.569" y1="23.3246" x2="1188.45" y2="1541.56" gradientUnits="userSpaceOnUse">
<stop stop-color="#7500EB"/>
<stop offset="0.489583" stop-color="#268AFF"/>
<stop offset="1" stop-color="#0997FF"/>
</linearGradient>
<linearGradient id="paint11_linear_47_10119" x1="-242.75" y1="-73.132" x2="1063.74" y2="1569.99" gradientUnits="userSpaceOnUse">
<stop stop-color="#7500EB"/>
<stop offset="0.489583" stop-color="#268AFF"/>
<stop offset="1" stop-color="#0997FF"/>
</linearGradient>
<linearGradient id="paint12_linear_47_10119" x1="-176.657" y1="-161.476" x2="943.045" y2="1583.71" gradientUnits="userSpaceOnUse">
<stop stop-color="#7500EB"/>
<stop offset="0.489583" stop-color="#268AFF"/>
<stop offset="1" stop-color="#0997FF"/>
</linearGradient>
<linearGradient id="paint13_linear_47_10119" x1="-103.3" y1="-240.989" x2="827.983" y2="1585.61" gradientUnits="userSpaceOnUse">
<stop stop-color="#7500EB"/>
<stop offset="0.489583" stop-color="#268AFF"/>
<stop offset="1" stop-color="#0997FF"/>
</linearGradient>
<linearGradient id="paint14_linear_47_10119" x1="-23.7586" y1="-311.043" x2="719.177" y2="1578.55" gradientUnits="userSpaceOnUse">
<stop stop-color="#7500EB"/>
<stop offset="0.489583" stop-color="#268AFF"/>
<stop offset="1" stop-color="#0997FF"/>
</linearGradient>
<linearGradient id="paint15_linear_47_10119" x1="60.8127" y1="-371.125" x2="616.377" y2="1565.11" gradientUnits="userSpaceOnUse">
<stop stop-color="#7500EB"/>
<stop offset="0.489583" stop-color="#268AFF"/>
<stop offset="1" stop-color="#0997FF"/>
</linearGradient>
<linearGradient id="paint16_linear_47_10119" x1="149.198" y1="-420.823" x2="518.648" y2="1547.43" gradientUnits="userSpaceOnUse">
<stop stop-color="#7500EB"/>
<stop offset="0.489583" stop-color="#268AFF"/>
<stop offset="1" stop-color="#0997FF"/>
</linearGradient>
<linearGradient id="paint17_linear_47_10119" x1="240.163" y1="-459.84" x2="424.582" y2="1527.1" gradientUnits="userSpaceOnUse">
<stop stop-color="#7500EB"/>
<stop offset="0.489583" stop-color="#268AFF"/>
<stop offset="1" stop-color="#0997FF"/>
</linearGradient>
<linearGradient id="paint18_linear_47_10119" x1="332.411" y1="-488" x2="332.411" y2="1505.08" gradientUnits="userSpaceOnUse">
<stop stop-color="#7500EB"/>
<stop offset="0.489583" stop-color="#268AFF"/>
<stop offset="1" stop-color="#0997FF"/>
</linearGradient>
<clipPath id="clip0_47_10119">
<rect width="1920" height="1080" fill="white"/>
</clipPath>
</defs>
</svg>
