<svg width="1440" height="665" viewBox="0 0 1440 665" fill="none" xmlns="http://www.w3.org/2000/svg">
<path d="M50 105H42L46 101L50 105Z" fill="white"/>
<path d="M106.001 45L48.001 103" stroke="white" stroke-width="5.66"/>
<path d="M108 47L108 39L104 43L108 47Z" fill="white"/>
<rect x="42" y="105" width="2" height="32" fill="white"/>
<path d="M44 107V105H46L44 107Z" fill="white"/>
<path d="M42 137V135L40 137H42Z" fill="white"/>
<rect x="108" y="39" width="76" height="1.9999" fill="white"/>
<path d="M108 42.9999V40.9999H110L108 42.9999Z" fill="white"/>
<rect x="24" y="153" width="2" height="120" fill="white"/>
<path d="M26 155V153H28L26 155Z" fill="white"/>
<path d="M28 153H24L26 151L28 153Z" fill="white"/>
<path d="M41.001 138L27.001 152" stroke="white" stroke-width="2.83"/>
<path d="M44 137H40L42 139L44 137Z" fill="white"/>
<path d="M9 290H7L8 289L9 290Z" fill="white"/>
<path d="M24.501 273.5L8.50098 289.5" stroke="white" stroke-width="1.41"/>
<path d="M26 273H24L25 274L26 273Z" fill="white"/>
<g opacity="0.4">
<path d="M256 0L256 2L257 1L256 0Z" fill="white"/>
<path d="M256.501 1.5L458.501 203.5" stroke="white" stroke-width="1.41"/>
<path d="M459 203L459 205L458 204L459 203Z" fill="white"/>
<path d="M541 204L541 206L542 205L541 204Z" fill="white"/>
<path d="M541.501 205.5L549.501 213.5" stroke="white" stroke-width="1.41"/>
<path d="M550 213L550 215L549 214L550 213Z" fill="white"/>
<rect x="459" y="204" width="82" height="0.9999" fill="white"/>
<path d="M459 204V203L460 204H459Z" fill="white"/>
<path d="M541 206V205H540L541 206Z" fill="white"/>
<rect x="240" width="16" height="0.9999" fill="white"/>
<path d="M256 2V1H255L256 2Z" fill="white"/>
</g>
<path d="M103 103H99L101 101L103 103Z" fill="white"/>
<path d="M112.001 92L102.001 102" stroke="white" stroke-width="2.83"/>
<path d="M115 91H111L113 93L115 91Z" fill="white"/>
<path d="M119 103H115L117 101L119 103Z" fill="white"/>
<path d="M128.001 92L118.001 102" stroke="white" stroke-width="2.83"/>
<path d="M131 91H127L129 93L131 91Z" fill="white"/>
<path d="M135 103H131L133 101L135 103Z" fill="white"/>
<path d="M144.001 92L134.001 102" stroke="white" stroke-width="2.83"/>
<path d="M147 91H143L145 93L147 91Z" fill="white"/>
<g opacity="0.4">
<rect y="342" width="1" height="178" fill="white"/>
<path d="M1 343V342H2L1 343Z" fill="white"/>
<path d="M2 342H0L1 341L2 342Z" fill="white"/>
<path d="M50.501 292.5L1.50098 341.5" stroke="white" stroke-width="1.41"/>
<path d="M52 292H50L51 293L52 292Z" fill="white"/>
</g>
<path d="M596 85V77L588 85H596Z" fill="white"/>
<g opacity="0.4">
<path d="M607 96V88L599 96H607Z" fill="white"/>
</g>
<g opacity="0.2">
<path d="M614 103V99L610 103H614Z" fill="white"/>
</g>
<rect y="483" width="1" height="5" fill="white"/>
<g opacity="0.6">
<path d="M370 465H366L368 463L370 465Z" fill="white"/>
<path d="M379.001 454L369.001 464" stroke="white" stroke-width="2.83"/>
<path d="M382 453H378L380 455L382 453Z" fill="white"/>
</g>
<g opacity="0.2">
<path d="M113 465H111L112 464L113 465Z" fill="white"/>
<path d="M123.501 453.5L112.501 464.5" stroke="white" stroke-width="1.41"/>
<path d="M125 453H123L124 454L125 453Z" fill="white"/>
<path d="M127 465H125L126 464L127 465Z" fill="white"/>
<path d="M137.501 453.5L126.501 464.5" stroke="white" stroke-width="1.41"/>
<path d="M139 453H137L138 454L139 453Z" fill="white"/>
<path d="M141 465H139L140 464L141 465Z" fill="white"/>
<path d="M151.501 453.5L140.501 464.5" stroke="white" stroke-width="1.41"/>
<path d="M153 453H151L152 454L153 453Z" fill="white"/>
<path d="M155 465H153L154 464L155 465Z" fill="white"/>
<path d="M165.501 453.5L154.501 464.5" stroke="white" stroke-width="1.41"/>
<path d="M167 453H165L166 454L167 453Z" fill="white"/>
<path d="M169 465H167L168 464L169 465Z" fill="white"/>
<path d="M179.501 453.5L168.501 464.5" stroke="white" stroke-width="1.41"/>
<path d="M181 453H179L180 454L181 453Z" fill="white"/>
<path d="M183 465H181L182 464L183 465Z" fill="white"/>
<path d="M193.501 453.5L182.501 464.5" stroke="white" stroke-width="1.41"/>
<path d="M195 453H193L194 454L195 453Z" fill="white"/>
<path d="M197 465H195L196 464L197 465Z" fill="white"/>
<path d="M207.501 453.5L196.501 464.5" stroke="white" stroke-width="1.41"/>
<path d="M209 453H207L208 454L209 453Z" fill="white"/>
<path d="M211 465H209L210 464L211 465Z" fill="white"/>
<path d="M221.501 453.5L210.501 464.5" stroke="white" stroke-width="1.41"/>
<path d="M223 453H221L222 454L223 453Z" fill="white"/>
<path d="M225 465H223L224 464L225 465Z" fill="white"/>
<path d="M235.501 453.5L224.501 464.5" stroke="white" stroke-width="1.41"/>
<path d="M237 453H235L236 454L237 453Z" fill="white"/>
<path d="M239 465H237L238 464L239 465Z" fill="white"/>
<path d="M249.501 453.5L238.501 464.5" stroke="white" stroke-width="1.41"/>
<path d="M251 453H249L250 454L251 453Z" fill="white"/>
<path d="M253 465H251L252 464L253 465Z" fill="white"/>
<path d="M263.501 453.5L252.501 464.5" stroke="white" stroke-width="1.41"/>
<path d="M265 453H263L264 454L265 453Z" fill="white"/>
<path d="M267 465H265L266 464L267 465Z" fill="white"/>
<path d="M277.501 453.5L266.501 464.5" stroke="white" stroke-width="1.41"/>
<path d="M279 453H277L278 454L279 453Z" fill="white"/>
<path d="M281 465H279L280 464L281 465Z" fill="white"/>
<path d="M291.501 453.5L280.501 464.5" stroke="white" stroke-width="1.41"/>
<path d="M293 453H291L292 454L293 453Z" fill="white"/>
<path d="M295 465H293L294 464L295 465Z" fill="white"/>
<path d="M305.501 453.5L294.501 464.5" stroke="white" stroke-width="1.41"/>
<path d="M307 453H305L306 454L307 453Z" fill="white"/>
<path d="M309 465H307L308 464L309 465Z" fill="white"/>
<path d="M319.501 453.5L308.501 464.5" stroke="white" stroke-width="1.41"/>
<path d="M321 453H319L320 454L321 453Z" fill="white"/>
</g>
<path d="M184 41V39H186L184 41Z" fill="white"/>
<path d="M50 560H42L46 564L50 560Z" fill="white"/>
<path d="M106.001 620L48.001 562" stroke="white" stroke-width="5.66"/>
<path d="M108 618L108 626L104 622L108 618Z" fill="white"/>
<rect width="2" height="32" transform="matrix(1 0 0 -1 42 560)" fill="white"/>
<path d="M44 558V560H46L44 558Z" fill="white"/>
<path d="M42 528V530L40 528H42Z" fill="white"/>
<rect width="76" height="1.9999" transform="matrix(1 0 0 -1 108 626)" fill="white"/>
<path d="M108 622V624H110L108 622Z" fill="white"/>
<rect width="2" height="120" transform="matrix(1 0 0 -1 24 512)" fill="white"/>
<path d="M26 510V512H28L26 510Z" fill="white"/>
<path d="M28 512H24L26 514L28 512Z" fill="white"/>
<path d="M41.001 527L27.001 513" stroke="white" stroke-width="2.83"/>
<path d="M44 528H40L42 526L44 528Z" fill="white"/>
<path d="M9 375H7L8 376L9 375Z" fill="white"/>
<path d="M24.501 391.5L8.50098 375.5" stroke="white" stroke-width="1.41"/>
<path d="M26 392H24L25 391L26 392Z" fill="white"/>
<g opacity="0.4">
<path d="M256 665L256 663L257 664L256 665Z" fill="white"/>
<path d="M256.501 663.5L458.501 461.5" stroke="white" stroke-width="1.41"/>
<path d="M459 462L459 460L458 461L459 462Z" fill="white"/>
<path d="M541 461L541 459L542 460L541 461Z" fill="white"/>
<path d="M541.501 459.5L549.501 451.5" stroke="white" stroke-width="1.41"/>
<path d="M550 452L550 450L549 451L550 452Z" fill="white"/>
<rect width="82" height="0.9999" transform="matrix(1 0 0 -1 459 461)" fill="white"/>
<path d="M459 461V462L460 461H459Z" fill="white"/>
<path d="M541 459V460H540L541 459Z" fill="white"/>
<rect width="16" height="0.9999" transform="matrix(1 0 0 -1 240 665)" fill="white"/>
<path d="M256 663V664H255L256 663Z" fill="white"/>
</g>
<path d="M103 562H99L101 564L103 562Z" fill="white"/>
<path d="M112.001 573L102.001 563" stroke="white" stroke-width="2.83"/>
<path d="M115 574H111L113 572L115 574Z" fill="white"/>
<path d="M119 562H115L117 564L119 562Z" fill="white"/>
<path d="M128.001 573L118.001 563" stroke="white" stroke-width="2.83"/>
<path d="M131 574H127L129 572L131 574Z" fill="white"/>
<path d="M135 562H131L133 564L135 562Z" fill="white"/>
<path d="M144.001 573L134.001 563" stroke="white" stroke-width="2.83"/>
<path d="M147 574H143L145 572L147 574Z" fill="white"/>
<g opacity="0.4">
<rect width="1" height="178" transform="matrix(1 0 0 -1 0 323)" fill="white"/>
<path d="M1 322V323H2L1 322Z" fill="white"/>
<path d="M2 323H0L1 324L2 323Z" fill="white"/>
<path d="M50.501 372.5L1.50098 323.5" stroke="white" stroke-width="1.41"/>
<path d="M52 373H50L51 372L52 373Z" fill="white"/>
</g>
<path d="M596 580V588L588 580H596Z" fill="white"/>
<g opacity="0.4">
<path d="M607 569V577L599 569H607Z" fill="white"/>
</g>
<g opacity="0.2">
<path d="M614 562V566L610 562H614Z" fill="white"/>
</g>
<rect width="1" height="5" transform="matrix(1 0 0 -1 0 182)" fill="white"/>
<g opacity="0.6">
<path d="M370 200H366L368 202L370 200Z" fill="white"/>
<path d="M379.001 211L369.001 201" stroke="white" stroke-width="2.83"/>
<path d="M382 212H378L380 210L382 212Z" fill="white"/>
</g>
<g opacity="0.2">
<path d="M113 200H111L112 201L113 200Z" fill="white"/>
<path d="M123.501 211.5L112.501 200.5" stroke="white" stroke-width="1.41"/>
<path d="M125 212H123L124 211L125 212Z" fill="white"/>
<path d="M127 200H125L126 201L127 200Z" fill="white"/>
<path d="M137.501 211.5L126.501 200.5" stroke="white" stroke-width="1.41"/>
<path d="M139 212H137L138 211L139 212Z" fill="white"/>
<path d="M141 200H139L140 201L141 200Z" fill="white"/>
<path d="M151.501 211.5L140.501 200.5" stroke="white" stroke-width="1.41"/>
<path d="M153 212H151L152 211L153 212Z" fill="white"/>
<path d="M155 200H153L154 201L155 200Z" fill="white"/>
<path d="M165.501 211.5L154.501 200.5" stroke="white" stroke-width="1.41"/>
<path d="M167 212H165L166 211L167 212Z" fill="white"/>
<path d="M169 200H167L168 201L169 200Z" fill="white"/>
<path d="M179.501 211.5L168.501 200.5" stroke="white" stroke-width="1.41"/>
<path d="M181 212H179L180 211L181 212Z" fill="white"/>
<path d="M183 200H181L182 201L183 200Z" fill="white"/>
<path d="M193.501 211.5L182.501 200.5" stroke="white" stroke-width="1.41"/>
<path d="M195 212H193L194 211L195 212Z" fill="white"/>
<path d="M197 200H195L196 201L197 200Z" fill="white"/>
<path d="M207.501 211.5L196.501 200.5" stroke="white" stroke-width="1.41"/>
<path d="M209 212H207L208 211L209 212Z" fill="white"/>
<path d="M211 200H209L210 201L211 200Z" fill="white"/>
<path d="M221.501 211.5L210.501 200.5" stroke="white" stroke-width="1.41"/>
<path d="M223 212H221L222 211L223 212Z" fill="white"/>
<path d="M225 200H223L224 201L225 200Z" fill="white"/>
<path d="M235.501 211.5L224.501 200.5" stroke="white" stroke-width="1.41"/>
<path d="M237 212H235L236 211L237 212Z" fill="white"/>
<path d="M239 200H237L238 201L239 200Z" fill="white"/>
<path d="M249.501 211.5L238.501 200.5" stroke="white" stroke-width="1.41"/>
<path d="M251 212H249L250 211L251 212Z" fill="white"/>
<path d="M253 200H251L252 201L253 200Z" fill="white"/>
<path d="M263.501 211.5L252.501 200.5" stroke="white" stroke-width="1.41"/>
<path d="M265 212H263L264 211L265 212Z" fill="white"/>
<path d="M267 200H265L266 201L267 200Z" fill="white"/>
<path d="M277.501 211.5L266.501 200.5" stroke="white" stroke-width="1.41"/>
<path d="M279 212H277L278 211L279 212Z" fill="white"/>
<path d="M281 200H279L280 201L281 200Z" fill="white"/>
<path d="M291.501 211.5L280.501 200.5" stroke="white" stroke-width="1.41"/>
<path d="M293 212H291L292 211L293 212Z" fill="white"/>
<path d="M295 200H293L294 201L295 200Z" fill="white"/>
<path d="M305.501 211.5L294.501 200.5" stroke="white" stroke-width="1.41"/>
<path d="M307 212H305L306 211L307 212Z" fill="white"/>
<path d="M309 200H307L308 201L309 200Z" fill="white"/>
<path d="M319.501 211.5L308.501 200.5" stroke="white" stroke-width="1.41"/>
<path d="M321 212H319L320 211L321 212Z" fill="white"/>
</g>
<path d="M184 624V626H186L184 624Z" fill="white"/>
<path d="M1390 105H1398L1394 101L1390 105Z" fill="white"/>
<path d="M1334 45L1392 103" stroke="white" stroke-width="5.66"/>
<path d="M1332 47L1332 39L1336 43L1332 47Z" fill="white"/>
<rect width="2" height="32" transform="matrix(-1 0 0 1 1398 105)" fill="white"/>
<path d="M1396 107V105H1394L1396 107Z" fill="white"/>
<path d="M1398 137V135L1400 137H1398Z" fill="white"/>
<rect width="76" height="1.9999" transform="matrix(-1 0 0 1 1332 39)" fill="white"/>
<path d="M1332 42.9999V40.9999H1330L1332 42.9999Z" fill="white"/>
<rect width="2" height="120" transform="matrix(-1 0 0 1 1416 153)" fill="white"/>
<path d="M1414 155V153H1412L1414 155Z" fill="white"/>
<path d="M1412 153H1416L1414 151L1412 153Z" fill="white"/>
<path d="M1399 138L1413 152" stroke="white" stroke-width="2.83"/>
<path d="M1396 137H1400L1398 139L1396 137Z" fill="white"/>
<path d="M1431 290H1433L1432 289L1431 290Z" fill="white"/>
<path d="M1415.5 273.5L1431.5 289.5" stroke="white" stroke-width="1.41"/>
<path d="M1414 273H1416L1415 274L1414 273Z" fill="white"/>
<g opacity="0.4">
<path d="M1184 0L1184 2L1183 1L1184 0Z" fill="white"/>
<path d="M1183.5 1.5L981.499 203.5" stroke="white" stroke-width="1.41"/>
<path d="M981 203L981 205L982 204L981 203Z" fill="white"/>
<path d="M899 204L899 206L898 205L899 204Z" fill="white"/>
<path d="M898.499 205.5L890.499 213.5" stroke="white" stroke-width="1.41"/>
<path d="M890 213L890 215L891 214L890 213Z" fill="white"/>
<rect width="82" height="0.9999" transform="matrix(-1 0 0 1 981 204)" fill="white"/>
<path d="M981 204V203L980 204H981Z" fill="white"/>
<path d="M899 206V205H900L899 206Z" fill="white"/>
<rect width="16" height="0.9999" transform="matrix(-1 0 0 1 1200 0)" fill="white"/>
<path d="M1184 2V1H1185L1184 2Z" fill="white"/>
</g>
<path d="M1337 103H1341L1339 101L1337 103Z" fill="white"/>
<path d="M1328 92L1338 102" stroke="white" stroke-width="2.83"/>
<path d="M1325 91H1329L1327 93L1325 91Z" fill="white"/>
<path d="M1321 103H1325L1323 101L1321 103Z" fill="white"/>
<path d="M1312 92L1322 102" stroke="white" stroke-width="2.83"/>
<path d="M1309 91H1313L1311 93L1309 91Z" fill="white"/>
<path d="M1305 103H1309L1307 101L1305 103Z" fill="white"/>
<path d="M1296 92L1306 102" stroke="white" stroke-width="2.83"/>
<path d="M1293 91H1297L1295 93L1293 91Z" fill="white"/>
<g opacity="0.4">
<rect width="1" height="178" transform="matrix(-1 0 0 1 1440 342)" fill="white"/>
<path d="M1439 343V342H1438L1439 343Z" fill="white"/>
<path d="M1438 342H1440L1439 341L1438 342Z" fill="white"/>
<path d="M1389.5 292.5L1438.5 341.5" stroke="white" stroke-width="1.41"/>
<path d="M1388 292H1390L1389 293L1388 292Z" fill="white"/>
</g>
<path d="M844 85V77L852 85H844Z" fill="white"/>
<g opacity="0.4">
<path d="M833 96V88L841 96H833Z" fill="white"/>
</g>
<g opacity="0.2">
<path d="M826 103V99L830 103H826Z" fill="white"/>
</g>
<rect width="1" height="5" transform="matrix(-1 0 0 1 1440 483)" fill="white"/>
<g opacity="0.6">
<path d="M1070 465H1074L1072 463L1070 465Z" fill="white"/>
<path d="M1061 454L1071 464" stroke="white" stroke-width="2.83"/>
<path d="M1058 453H1062L1060 455L1058 453Z" fill="white"/>
</g>
<g opacity="0.2">
<path d="M1327 465H1329L1328 464L1327 465Z" fill="white"/>
<path d="M1316.5 453.5L1327.5 464.5" stroke="white" stroke-width="1.41"/>
<path d="M1315 453H1317L1316 454L1315 453Z" fill="white"/>
<path d="M1313 465H1315L1314 464L1313 465Z" fill="white"/>
<path d="M1302.5 453.5L1313.5 464.5" stroke="white" stroke-width="1.41"/>
<path d="M1301 453H1303L1302 454L1301 453Z" fill="white"/>
<path d="M1299 465H1301L1300 464L1299 465Z" fill="white"/>
<path d="M1288.5 453.5L1299.5 464.5" stroke="white" stroke-width="1.41"/>
<path d="M1287 453H1289L1288 454L1287 453Z" fill="white"/>
<path d="M1285 465H1287L1286 464L1285 465Z" fill="white"/>
<path d="M1274.5 453.5L1285.5 464.5" stroke="white" stroke-width="1.41"/>
<path d="M1273 453H1275L1274 454L1273 453Z" fill="white"/>
<path d="M1271 465H1273L1272 464L1271 465Z" fill="white"/>
<path d="M1260.5 453.5L1271.5 464.5" stroke="white" stroke-width="1.41"/>
<path d="M1259 453H1261L1260 454L1259 453Z" fill="white"/>
<path d="M1257 465H1259L1258 464L1257 465Z" fill="white"/>
<path d="M1246.5 453.5L1257.5 464.5" stroke="white" stroke-width="1.41"/>
<path d="M1245 453H1247L1246 454L1245 453Z" fill="white"/>
<path d="M1243 465H1245L1244 464L1243 465Z" fill="white"/>
<path d="M1232.5 453.5L1243.5 464.5" stroke="white" stroke-width="1.41"/>
<path d="M1231 453H1233L1232 454L1231 453Z" fill="white"/>
<path d="M1229 465H1231L1230 464L1229 465Z" fill="white"/>
<path d="M1218.5 453.5L1229.5 464.5" stroke="white" stroke-width="1.41"/>
<path d="M1217 453H1219L1218 454L1217 453Z" fill="white"/>
<path d="M1215 465H1217L1216 464L1215 465Z" fill="white"/>
<path d="M1204.5 453.5L1215.5 464.5" stroke="white" stroke-width="1.41"/>
<path d="M1203 453H1205L1204 454L1203 453Z" fill="white"/>
<path d="M1201 465H1203L1202 464L1201 465Z" fill="white"/>
<path d="M1190.5 453.5L1201.5 464.5" stroke="white" stroke-width="1.41"/>
<path d="M1189 453H1191L1190 454L1189 453Z" fill="white"/>
<path d="M1187 465H1189L1188 464L1187 465Z" fill="white"/>
<path d="M1176.5 453.5L1187.5 464.5" stroke="white" stroke-width="1.41"/>
<path d="M1175 453H1177L1176 454L1175 453Z" fill="white"/>
<path d="M1173 465H1175L1174 464L1173 465Z" fill="white"/>
<path d="M1162.5 453.5L1173.5 464.5" stroke="white" stroke-width="1.41"/>
<path d="M1161 453H1163L1162 454L1161 453Z" fill="white"/>
<path d="M1159 465H1161L1160 464L1159 465Z" fill="white"/>
<path d="M1148.5 453.5L1159.5 464.5" stroke="white" stroke-width="1.41"/>
<path d="M1147 453H1149L1148 454L1147 453Z" fill="white"/>
<path d="M1145 465H1147L1146 464L1145 465Z" fill="white"/>
<path d="M1134.5 453.5L1145.5 464.5" stroke="white" stroke-width="1.41"/>
<path d="M1133 453H1135L1134 454L1133 453Z" fill="white"/>
<path d="M1131 465H1133L1132 464L1131 465Z" fill="white"/>
<path d="M1120.5 453.5L1131.5 464.5" stroke="white" stroke-width="1.41"/>
<path d="M1119 453H1121L1120 454L1119 453Z" fill="white"/>
</g>
<path d="M1256 41V39H1254L1256 41Z" fill="white"/>
<path d="M1390 560H1398L1394 564L1390 560Z" fill="white"/>
<path d="M1334 620L1392 562" stroke="white" stroke-width="5.66"/>
<path d="M1332 618L1332 626L1336 622L1332 618Z" fill="white"/>
<rect x="1398" y="560" width="2" height="32" transform="rotate(-180 1398 560)" fill="white"/>
<path d="M1396 558V560H1394L1396 558Z" fill="white"/>
<path d="M1398 528V530L1400 528H1398Z" fill="white"/>
<rect x="1332" y="626" width="76" height="1.9999" transform="rotate(-180 1332 626)" fill="white"/>
<path d="M1332 622V624H1330L1332 622Z" fill="white"/>
<rect x="1416" y="512" width="2" height="120" transform="rotate(-180 1416 512)" fill="white"/>
<path d="M1414 510V512H1412L1414 510Z" fill="white"/>
<path d="M1412 512H1416L1414 514L1412 512Z" fill="white"/>
<path d="M1399 527L1413 513" stroke="white" stroke-width="2.83"/>
<path d="M1396 528H1400L1398 526L1396 528Z" fill="white"/>
<path d="M1431 375H1433L1432 376L1431 375Z" fill="white"/>
<path d="M1415.5 391.5L1431.5 375.5" stroke="white" stroke-width="1.41"/>
<path d="M1414 392H1416L1415 391L1414 392Z" fill="white"/>
<g opacity="0.4">
<path d="M1184 665L1184 663L1183 664L1184 665Z" fill="white"/>
<path d="M1183.5 663.5L981.499 461.5" stroke="white" stroke-width="1.41"/>
<path d="M981 462L981 460L982 461L981 462Z" fill="white"/>
<path d="M899 461L899 459L898 460L899 461Z" fill="white"/>
<path d="M898.499 459.5L890.499 451.5" stroke="white" stroke-width="1.41"/>
<path d="M890 452L890 450L891 451L890 452Z" fill="white"/>
<rect x="981" y="461" width="82" height="0.9999" transform="rotate(-180 981 461)" fill="white"/>
<path d="M981 461V462L980 461H981Z" fill="white"/>
<path d="M899 459V460H900L899 459Z" fill="white"/>
<rect x="1200" y="665" width="16" height="0.9999" transform="rotate(-180 1200 665)" fill="white"/>
<path d="M1184 663V664H1185L1184 663Z" fill="white"/>
</g>
<path d="M1337 562H1341L1339 564L1337 562Z" fill="white"/>
<path d="M1328 573L1338 563" stroke="white" stroke-width="2.83"/>
<path d="M1325 574H1329L1327 572L1325 574Z" fill="white"/>
<path d="M1321 562H1325L1323 564L1321 562Z" fill="white"/>
<path d="M1312 573L1322 563" stroke="white" stroke-width="2.83"/>
<path d="M1309 574H1313L1311 572L1309 574Z" fill="white"/>
<path d="M1305 562H1309L1307 564L1305 562Z" fill="white"/>
<path d="M1296 573L1306 563" stroke="white" stroke-width="2.83"/>
<path d="M1293 574H1297L1295 572L1293 574Z" fill="white"/>
<g opacity="0.4">
<rect x="1440" y="323" width="1" height="178" transform="rotate(-180 1440 323)" fill="white"/>
<path d="M1439 322V323H1438L1439 322Z" fill="white"/>
<path d="M1438 323H1440L1439 324L1438 323Z" fill="white"/>
<path d="M1389.5 372.5L1438.5 323.5" stroke="white" stroke-width="1.41"/>
<path d="M1388 373H1390L1389 372L1388 373Z" fill="white"/>
</g>
<path d="M844 580V588L852 580H844Z" fill="white"/>
<g opacity="0.4">
<path d="M833 569V577L841 569H833Z" fill="white"/>
</g>
<g opacity="0.2">
<path d="M826 562V566L830 562H826Z" fill="white"/>
</g>
<rect x="1440" y="182" width="1" height="5" transform="rotate(-180 1440 182)" fill="white"/>
<g opacity="0.6">
<path d="M1070 200H1074L1072 202L1070 200Z" fill="white"/>
<path d="M1061 211L1071 201" stroke="white" stroke-width="2.83"/>
<path d="M1058 212H1062L1060 210L1058 212Z" fill="white"/>
</g>
<g opacity="0.2">
<path d="M1327 200H1329L1328 201L1327 200Z" fill="white"/>
<path d="M1316.5 211.5L1327.5 200.5" stroke="white" stroke-width="1.41"/>
<path d="M1315 212H1317L1316 211L1315 212Z" fill="white"/>
<path d="M1313 200H1315L1314 201L1313 200Z" fill="white"/>
<path d="M1302.5 211.5L1313.5 200.5" stroke="white" stroke-width="1.41"/>
<path d="M1301 212H1303L1302 211L1301 212Z" fill="white"/>
<path d="M1299 200H1301L1300 201L1299 200Z" fill="white"/>
<path d="M1288.5 211.5L1299.5 200.5" stroke="white" stroke-width="1.41"/>
<path d="M1287 212H1289L1288 211L1287 212Z" fill="white"/>
<path d="M1285 200H1287L1286 201L1285 200Z" fill="white"/>
<path d="M1274.5 211.5L1285.5 200.5" stroke="white" stroke-width="1.41"/>
<path d="M1273 212H1275L1274 211L1273 212Z" fill="white"/>
<path d="M1271 200H1273L1272 201L1271 200Z" fill="white"/>
<path d="M1260.5 211.5L1271.5 200.5" stroke="white" stroke-width="1.41"/>
<path d="M1259 212H1261L1260 211L1259 212Z" fill="white"/>
<path d="M1257 200H1259L1258 201L1257 200Z" fill="white"/>
<path d="M1246.5 211.5L1257.5 200.5" stroke="white" stroke-width="1.41"/>
<path d="M1245 212H1247L1246 211L1245 212Z" fill="white"/>
<path d="M1243 200H1245L1244 201L1243 200Z" fill="white"/>
<path d="M1232.5 211.5L1243.5 200.5" stroke="white" stroke-width="1.41"/>
<path d="M1231 212H1233L1232 211L1231 212Z" fill="white"/>
<path d="M1229 200H1231L1230 201L1229 200Z" fill="white"/>
<path d="M1218.5 211.5L1229.5 200.5" stroke="white" stroke-width="1.41"/>
<path d="M1217 212H1219L1218 211L1217 212Z" fill="white"/>
<path d="M1215 200H1217L1216 201L1215 200Z" fill="white"/>
<path d="M1204.5 211.5L1215.5 200.5" stroke="white" stroke-width="1.41"/>
<path d="M1203 212H1205L1204 211L1203 212Z" fill="white"/>
<path d="M1201 200H1203L1202 201L1201 200Z" fill="white"/>
<path d="M1190.5 211.5L1201.5 200.5" stroke="white" stroke-width="1.41"/>
<path d="M1189 212H1191L1190 211L1189 212Z" fill="white"/>
<path d="M1187 200H1189L1188 201L1187 200Z" fill="white"/>
<path d="M1176.5 211.5L1187.5 200.5" stroke="white" stroke-width="1.41"/>
<path d="M1175 212H1177L1176 211L1175 212Z" fill="white"/>
<path d="M1173 200H1175L1174 201L1173 200Z" fill="white"/>
<path d="M1162.5 211.5L1173.5 200.5" stroke="white" stroke-width="1.41"/>
<path d="M1161 212H1163L1162 211L1161 212Z" fill="white"/>
<path d="M1159 200H1161L1160 201L1159 200Z" fill="white"/>
<path d="M1148.5 211.5L1159.5 200.5" stroke="white" stroke-width="1.41"/>
<path d="M1147 212H1149L1148 211L1147 212Z" fill="white"/>
<path d="M1145 200H1147L1146 201L1145 200Z" fill="white"/>
<path d="M1134.5 211.5L1145.5 200.5" stroke="white" stroke-width="1.41"/>
<path d="M1133 212H1135L1134 211L1133 212Z" fill="white"/>
<path d="M1131 200H1133L1132 201L1131 200Z" fill="white"/>
<path d="M1120.5 211.5L1131.5 200.5" stroke="white" stroke-width="1.41"/>
<path d="M1119 212H1121L1120 211L1119 212Z" fill="white"/>
</g>
<path d="M1256 624V626H1254L1256 624Z" fill="white"/>
</svg>
