<svg width="2404" height="2059" viewBox="0 0 2404 2059" fill="none" xmlns="http://www.w3.org/2000/svg">
<path opacity="0.0526316" d="M186.78 1662.21C237.504 1721.81 399.625 1821.53 642.312 1743.67C945.671 1646.35 1063 1388.37 1333.75 1254.6C1533.58 1155.88 2070.55 1007.68 2379.31 1171.44" stroke="url(#paint0_linear_47_10558)" stroke-opacity="0.26" stroke-width="2"/>
<path opacity="0.105263" d="M136.749 1537.28C180.141 1601.23 329.569 1715.37 580.143 1660.34C893.36 1591.55 1040.58 1345.82 1325.68 1237.78C1536.11 1158.03 2087.68 1060.21 2375.36 1251.58" stroke="url(#paint1_linear_47_10558)" stroke-opacity="0.26" stroke-width="2"/>
<path opacity="0.157895" d="M98.9532 1410.66C134.538 1478.27 269.637 1605.58 525.352 1573.98C844.996 1534.48 1020.5 1303.68 1316.83 1222.55C1535.54 1162.67 2095.66 1116.29 2359.12 1333.17" stroke="url(#paint2_linear_47_10558)" stroke-opacity="0.26" stroke-width="2"/>
<path opacity="0.210526" d="M73.5195 1283.5C100.907 1354.02 220.197 1493.1 478.251 1485.28C800.819 1475.5 1002.68 1262.16 1306.99 1208.83C1531.59 1169.46 2094.13 1175.05 2330.48 1415.05" stroke="url(#paint3_linear_47_10558)" stroke-opacity="0.26" stroke-width="2"/>
<path opacity="0.263158" d="M60.4492 1156.93C79.3398 1229.59 181.513 1378.92 439.079 1394.96C761.038 1415.01 987.043 1221.48 1296 1196.53C1524.03 1178.11 2082.83 1235.59 2289.48 1496.1" stroke="url(#paint4_linear_47_10558)" stroke-opacity="0.26" stroke-width="2"/>
<path opacity="0.315789" d="M59.6089 1032.1C69.7952 1106.1 153.732 1264.05 407.989 1303.78C725.811 1353.44 973.486 1181.82 1283.7 1185.53C1512.67 1188.26 2061.6 1297.01 2236.28 1575.16" stroke="url(#paint5_linear_47_10558)" stroke-opacity="0.26" stroke-width="2"/>
<path opacity="0.368421" d="M70.72 910.118C72.0905 984.66 136.872 1149.49 385.033 1212.47C695.236 1291.19 961.867 1143.38 1269.95 1175.7C1497.33 1199.56 2030.39 1358.38 2171.18 1651.13" stroke="url(#paint6_linear_47_10558)" stroke-opacity="0.26" stroke-width="2"/>
<path opacity="0.421053" d="M93.3805 792.083C85.9201 866.343 130.836 1036.25 370.183 1121.79C669.368 1228.72 952.035 1106.33 1254.6 1166.91C1477.92 1211.62 1989.25 1418.78 2094.62 1722.92" stroke="url(#paint7_linear_47_10558)" stroke-opacity="0.26" stroke-width="2"/>
<path opacity="0.473684" d="M127.06 679.035C110.851 752.199 135.409 925.32 363.32 1032.49C648.208 1166.45 943.814 1070.82 1237.55 1159C1454.35 1224.08 1938.37 1477.3 2007.16 1789.51" stroke="url(#paint8_linear_47_10558)" stroke-opacity="0.26" stroke-width="2"/>
<path opacity="0.526316" d="M171.105 571.963C146.324 643.23 150.256 817.669 364.233 945.287C631.705 1104.81 937.01 1036.99 1218.7 1151.8C1426.61 1236.54 1878 1533.05 1909.46 1849.9" stroke="url(#paint9_linear_47_10558)" stroke-opacity="0.26" stroke-width="2"/>
<path opacity="0.578947" d="M224.761 471.789C191.68 540.379 174.942 714.225 372.641 860.895C619.765 1044.23 931.425 1004.97 1197.98 1145.15C1394.72 1248.61 1808.54 1585.17 1802.33 1903.18" stroke="url(#paint10_linear_47_10558)" stroke-opacity="0.26" stroke-width="2"/>
<path opacity="0.631579" d="M287.152 379.37C246.134 444.53 208.91 615.879 388.165 779.995C612.234 985.139 926.834 974.861 1175.34 1138.88C1358.75 1259.94 1730.47 1632.85 1686.64 1948.54" stroke="url(#paint11_linear_47_10558)" stroke-opacity="0.26" stroke-width="2"/>
<path opacity="0.684211" d="M357.313 295.463C308.807 356.48 251.504 523.454 410.351 703.217C608.91 927.921 923.003 946.739 1150.73 1132.8C1318.81 1270.12 1644.35 1675.3 1563.4 1985.22" stroke="url(#paint12_linear_47_10558)" stroke-opacity="0.26" stroke-width="2"/>
<path opacity="0.736842" d="M434.192 220.738C378.728 276.943 301.976 437.714 438.674 631.155C609.547 872.956 919.693 920.664 1124.15 1126.72C1275.06 1278.81 1550.85 1711.82 1433.66 2012.57" stroke="url(#paint13_linear_47_10558)" stroke-opacity="0.26" stroke-width="2"/>
<path opacity="0.789474" d="M516.669 155.771C454.856 206.549 359.494 359.353 472.546 564.353C613.862 820.602 916.661 896.677 1095.61 1120.48C1227.69 1285.66 1450.71 1741.76 1298.56 2030.05" stroke="url(#paint14_linear_47_10558)" stroke-opacity="0.26" stroke-width="2"/>
<path opacity="0.842105" d="M603.556 101.019C536.072 145.813 423.145 288.978 511.312 503.29C621.522 771.18 913.658 874.788 1065.13 1113.88C1176.93 1290.36 1344.75 1764.54 1159.31 2037.2" stroke="url(#paint15_linear_47_10558)" stroke-opacity="0.26" stroke-width="2"/>
<path opacity="0.894737" d="M693.615 56.8363C621.198 95.1553 491.944 227.112 554.261 448.389C632.157 724.985 910.429 854.991 1032.77 1106.76C1123.07 1292.58 1233.85 1779.66 1017.14 2033.71" stroke="url(#paint16_linear_47_10558)" stroke-opacity="0.26" stroke-width="2"/>
<path opacity="0.947368" d="M785.593 23.458C709.037 54.8825 564.871 174.186 600.655 400.002C645.384 682.273 906.743 837.254 998.616 1098.94C1066.43 1292.08 1118.94 1786.71 873.351 2019.37" stroke="url(#paint17_linear_47_10558)" stroke-opacity="0.26" stroke-width="2"/>
<path d="M878.179 1C798.323 25.1857 640.825 130.528 649.683 358.41C660.755 643.264 902.337 821.521 962.733 1090.25C1007.31 1288.59 1000.98 1785.36 729.203 1994.08" stroke="url(#paint18_linear_47_10558)" stroke-opacity="0.26" stroke-width="2"/>
<defs>
<linearGradient id="paint0_linear_47_10558" x1="205.867" y1="1714.09" x2="2296.02" y2="945.043" gradientUnits="userSpaceOnUse">
<stop stop-color="#7500EB"/>
<stop offset="0.489583" stop-color="#268AFF"/>
<stop offset="1" stop-color="#0997FF"/>
</linearGradient>
<linearGradient id="paint1_linear_47_10558" x1="149.591" y1="1590.63" x2="2330.62" y2="1065.66" gradientUnits="userSpaceOnUse">
<stop stop-color="#7500EB"/>
<stop offset="0.489583" stop-color="#268AFF"/>
<stop offset="1" stop-color="#0997FF"/>
</linearGradient>
<linearGradient id="paint2_linear_47_10558" x1="105.41" y1="1464.91" x2="2343.11" y2="1198.58" gradientUnits="userSpaceOnUse">
<stop stop-color="#7500EB"/>
<stop offset="0.489583" stop-color="#268AFF"/>
<stop offset="1" stop-color="#0997FF"/>
</linearGradient>
<linearGradient id="paint3_linear_47_10558" x1="73.5195" y1="1338.04" x2="2330.48" y2="1338.04" gradientUnits="userSpaceOnUse">
<stop stop-color="#7500EB"/>
<stop offset="0.489583" stop-color="#268AFF"/>
<stop offset="1" stop-color="#0997FF"/>
</linearGradient>
<linearGradient id="paint4_linear_47_10558" x1="53.9927" y1="1211.18" x2="2291.69" y2="1477.51" gradientUnits="userSpaceOnUse">
<stop stop-color="#7500EB"/>
<stop offset="0.489583" stop-color="#268AFF"/>
<stop offset="1" stop-color="#0997FF"/>
</linearGradient>
<linearGradient id="paint5_linear_47_10558" x1="46.7667" y1="1085.45" x2="2227.79" y2="1610.42" gradientUnits="userSpaceOnUse">
<stop stop-color="#7500EB"/>
<stop offset="0.489583" stop-color="#268AFF"/>
<stop offset="1" stop-color="#0997FF"/>
</linearGradient>
<linearGradient id="paint6_linear_47_10558" x1="51.6328" y1="961.994" x2="2141.78" y2="1731.04" gradientUnits="userSpaceOnUse">
<stop stop-color="#7500EB"/>
<stop offset="0.489583" stop-color="#268AFF"/>
<stop offset="1" stop-color="#0997FF"/>
</linearGradient>
<linearGradient id="paint7_linear_47_10558" x1="68.2574" y1="841.913" x2="2038.09" y2="1835.06" gradientUnits="userSpaceOnUse">
<stop stop-color="#7500EB"/>
<stop offset="0.489583" stop-color="#268AFF"/>
<stop offset="1" stop-color="#0997FF"/>
</linearGradient>
<linearGradient id="paint8_linear_47_10558" x1="96.1764" y1="726.273" x2="1921.9" y2="1919.91" gradientUnits="userSpaceOnUse">
<stop stop-color="#7500EB"/>
<stop offset="0.489583" stop-color="#268AFF"/>
<stop offset="1" stop-color="#0997FF"/>
</linearGradient>
<linearGradient id="paint9_linear_47_10558" x1="134.799" y1="616.091" x2="1798.44" y2="1984.83" gradientUnits="userSpaceOnUse">
<stop stop-color="#7500EB"/>
<stop offset="0.489583" stop-color="#268AFF"/>
<stop offset="1" stop-color="#0997FF"/>
</linearGradient>
<linearGradient id="paint10_linear_47_10558" x1="183.43" y1="512.325" x2="1672.45" y2="2030.56" gradientUnits="userSpaceOnUse">
<stop stop-color="#7500EB"/>
<stop offset="0.489583" stop-color="#268AFF"/>
<stop offset="1" stop-color="#0997FF"/>
</linearGradient>
<linearGradient id="paint11_linear_47_10558" x1="241.25" y1="415.868" x2="1547.74" y2="2058.99" gradientUnits="userSpaceOnUse">
<stop stop-color="#7500EB"/>
<stop offset="0.489583" stop-color="#268AFF"/>
<stop offset="1" stop-color="#0997FF"/>
</linearGradient>
<linearGradient id="paint12_linear_47_10558" x1="307.342" y1="327.524" x2="1427.04" y2="2072.71" gradientUnits="userSpaceOnUse">
<stop stop-color="#7500EB"/>
<stop offset="0.489583" stop-color="#268AFF"/>
<stop offset="1" stop-color="#0997FF"/>
</linearGradient>
<linearGradient id="paint13_linear_47_10558" x1="380.7" y1="248.011" x2="1311.98" y2="2074.61" gradientUnits="userSpaceOnUse">
<stop stop-color="#7500EB"/>
<stop offset="0.489583" stop-color="#268AFF"/>
<stop offset="1" stop-color="#0997FF"/>
</linearGradient>
<linearGradient id="paint14_linear_47_10558" x1="460.241" y1="177.957" x2="1203.18" y2="2067.55" gradientUnits="userSpaceOnUse">
<stop stop-color="#7500EB"/>
<stop offset="0.489583" stop-color="#268AFF"/>
<stop offset="1" stop-color="#0997FF"/>
</linearGradient>
<linearGradient id="paint15_linear_47_10558" x1="544.812" y1="117.875" x2="1100.38" y2="2054.11" gradientUnits="userSpaceOnUse">
<stop stop-color="#7500EB"/>
<stop offset="0.489583" stop-color="#268AFF"/>
<stop offset="1" stop-color="#0997FF"/>
</linearGradient>
<linearGradient id="paint16_linear_47_10558" x1="633.198" y1="68.177" x2="1002.65" y2="2036.43" gradientUnits="userSpaceOnUse">
<stop stop-color="#7500EB"/>
<stop offset="0.489583" stop-color="#268AFF"/>
<stop offset="1" stop-color="#0997FF"/>
</linearGradient>
<linearGradient id="paint17_linear_47_10558" x1="724.164" y1="29.1596" x2="908.583" y2="2016.1" gradientUnits="userSpaceOnUse">
<stop stop-color="#7500EB"/>
<stop offset="0.489583" stop-color="#268AFF"/>
<stop offset="1" stop-color="#0997FF"/>
</linearGradient>
<linearGradient id="paint18_linear_47_10558" x1="816.411" y1="1" x2="816.411" y2="1994.08" gradientUnits="userSpaceOnUse">
<stop stop-color="#7500EB"/>
<stop offset="0.489583" stop-color="#268AFF"/>
<stop offset="1" stop-color="#0997FF"/>
</linearGradient>
</defs>
</svg>
