<svg width="218" height="277" viewBox="0 0 218 277" fill="none" xmlns="http://www.w3.org/2000/svg">
<path d="M11.9163 200.026L1.36186 163.175L19.066 172.387L21.1088 191.495L34.7274 198.661L32.6846 179.212L41.5367 183.989L67.0716 254.279L85.4567 260.762L83.7543 256.667L69.4548 251.208L43.5795 180.577L33.0251 174.776L39.4939 163.175L27.2372 154.303L19.066 168.634L0 158.398L11.9163 121.205L59.2409 163.175L76.2641 235.512L96.0111 247.113L99.4157 187.06L108.949 166.587V276.457L70.1357 266.903H56.1767L54.8148 265.539L54.1339 245.066L38.4725 210.262L11.9163 200.026Z" fill="url(#paint0_linear_59_243)"/>
<path d="M205.982 200.026L216.536 163.175L198.832 172.387L196.789 191.495L183.171 198.661L185.213 179.212L176.361 183.989L150.826 254.279L132.441 260.762L134.144 256.667L148.443 251.208L174.318 180.577L184.873 174.776L178.404 163.175L190.661 154.303L198.832 168.634L217.898 158.398L205.982 121.205L158.657 163.175L141.634 235.512L121.887 247.113L118.482 187.06L108.949 166.587L108.949 276.457L147.762 266.903H161.721L163.083 265.539L163.764 245.066L179.425 210.262L205.982 200.026Z" fill="url(#paint1_linear_59_243)"/>
<path d="M69.4548 186.531L62.986 159.592L76.6046 154.136L85.7971 134.698L56.5172 101.62L51.7506 84.9109L36.0893 66.1555L20.7684 83.2059L25.1944 123.104L11.5758 111.169L0 71.2706L20.7684 46.036L32.6846 9.54822L85.7971 0L102.82 31.7137V100.256L87.4995 83.2059L71.8381 29.3267L51.7506 48.7641L82.3925 83.2059L84.7757 92.0721L106.906 117.648V124.809L86.1376 166.071L79.3283 169.822L81.0306 173.232L89.2018 169.14L108.949 130.265V155.5L96.3515 182.439L89.2018 188.918V213.812L81.0306 208.015L78.9878 196.079L69.4548 186.531Z" fill="url(#paint2_linear_59_243)"/>
<path d="M148.443 186.531L154.912 159.592L141.293 154.136L132.101 134.698L161.381 101.62L166.147 84.9109L181.809 66.1555L197.13 83.2059L192.704 123.104L206.322 111.169L217.898 71.2706L197.13 46.036L185.213 9.54822L132.101 0L115.078 31.7137V100.256L130.398 83.2059L146.06 29.3267L166.147 48.7641L135.505 83.2059L133.122 92.0721L110.992 117.648V124.809L131.76 166.071L138.57 169.822L136.867 173.232L128.696 169.14L108.949 130.265V155.5L121.546 182.439L128.696 188.918V213.812L136.867 208.015L138.91 196.079L148.443 186.531Z" fill="url(#paint3_linear_59_243)"/>
<defs>
<linearGradient id="paint0_linear_59_243" x1="54.4744" y1="121.205" x2="54.4744" y2="276.457" gradientUnits="userSpaceOnUse">
<stop stop-color="#00B2FF"/>
<stop offset="1" stop-color="#7147ED" stop-opacity="0"/>
</linearGradient>
<linearGradient id="paint1_linear_59_243" x1="163.424" y1="121.205" x2="163.424" y2="276.457" gradientUnits="userSpaceOnUse">
<stop stop-color="#00B2FF"/>
<stop offset="1" stop-color="#7147ED" stop-opacity="0"/>
</linearGradient>
<linearGradient id="paint2_linear_59_243" x1="54.4744" y1="0" x2="54.4744" y2="213.812" gradientUnits="userSpaceOnUse">
<stop stop-color="#00B2FF"/>
<stop offset="1" stop-color="#7147ED" stop-opacity="0"/>
</linearGradient>
<linearGradient id="paint3_linear_59_243" x1="163.424" y1="0" x2="163.424" y2="213.812" gradientUnits="userSpaceOnUse">
<stop stop-color="#00B2FF"/>
<stop offset="1" stop-color="#7147ED" stop-opacity="0"/>
</linearGradient>
</defs>
</svg>
