<svg width="397" height="503" viewBox="0 0 397 503" fill="none" xmlns="http://www.w3.org/2000/svg">
<path d="M22.6015 363.601L3.46874 296.798L35.5624 313.499L39.2655 348.137L63.9528 361.127L60.2497 325.87L76.2965 334.529L122.585 461.949L155.913 473.701L152.827 466.279L126.906 456.382L79.9996 328.344L60.8669 317.829L72.5934 296.798L50.3748 280.716L35.5624 306.695L1 288.139L22.6015 220.718L108.39 296.798L139.249 427.929L175.046 448.959L181.218 340.096L198.499 302.984V502.154L128.14 484.835H102.835L100.367 482.361L99.1324 445.248L70.7419 382.157L22.6015 363.601Z" stroke="#B50000" stroke-opacity="0.21"/>
<path d="M198.501 502.154L268.86 484.835L294.165 484.835L296.633 482.361L297.868 445.248L326.258 382.157L374.399 363.601L393.531 296.798L361.438 313.499L357.735 348.137L333.047 361.127L336.75 325.87L320.703 334.529L274.415 461.949L241.087 473.701L244.173 466.279L270.094 456.382L317 328.344L336.133 317.829L324.407 296.798L346.625 280.716L361.438 306.695L396 288.139L374.399 220.718L288.61 296.798L257.751 427.929L221.954 448.96L215.782 340.096L198.501 302.984" stroke="#B50000" stroke-opacity="0.21"/>
<path d="M126.906 339.138L115.179 290.303L139.867 280.412L156.531 245.177L103.453 185.214L94.8121 154.924L66.4216 120.925L38.6483 151.833L46.6717 224.159L21.9843 202.523L1 130.197L38.6483 84.4528L60.2497 18.3087L156.531 1L187.39 58.4897V182.742L159.616 151.833L131.226 54.1625L94.8121 89.3982L150.359 151.833L154.679 167.906L194.796 214.268V227.25L157.148 302.048L144.804 308.848L147.89 315.03L162.702 307.612L198.499 237.141V282.885L175.663 331.72L162.702 343.466V388.592L147.89 378.083L144.187 356.447L126.906 339.138Z" stroke="#B50000" stroke-opacity="0.21"/>
<path d="M198.501 282.885L221.337 331.72L234.298 343.466V388.592L249.11 378.083L252.813 356.447L270.094 339.138L281.821 290.303L257.133 280.412L240.469 245.177L293.547 185.214L302.188 154.924L330.578 120.925L358.352 151.833L350.328 224.159L375.016 202.523L396 130.197L358.352 84.4528L336.75 18.3087L240.469 1L209.61 58.4897V182.742L237.384 151.833L265.774 54.1625L302.188 89.3982L246.641 151.833L242.321 167.906L202.204 214.268V227.25L239.852 302.048L252.196 308.848L249.11 315.03L234.298 307.612L198.501 237.141" stroke="#B50000" stroke-opacity="0.21"/>
</svg>
