<svg width="1920" height="1080" viewBox="0 0 1920 1080" fill="none" xmlns="http://www.w3.org/2000/svg">
<g clip-path="url(#clip0_21_3)">
<path d="M763.282 -206.906C714.373 -334.158 472.409 -396.997 512.338 -143.628C518.885 -102.084 519.544 -30.5483 512.338 56.5248C505.737 136.289 376.519 179.933 336.853 282.997C274.645 444.631 507.235 557.291 470.222 642.259C421.743 753.546 273.305 801.831 191.2 862.716C113.907 920.033 64.6731 1012 45.7692 1106.55C12.6048 1272.43 72.7901 1446.27 238.581 1454.92C321.575 1459.25 431.033 1422.18 568.493 1322C629.952 1277.21 684.145 1240.3 732.309 1210.45C856.276 1133.63 822.947 1315.34 970.355 1322C1054.35 1325.8 1142.07 1168.92 1208.48 1252.6C1255.7 1312.1 1309.89 1384.29 1387.27 1458.52C1523.17 1588.86 1693.09 1608.05 1717.12 1422.02C1728.46 1334.2 1707.3 1200.65 1634.71 1011.48C1588.25 890.416 1703.8 894.683 1717.12 739.547C1730.43 584.411 1621.56 512.867 1700.37 448.659L1701.95 447.373C1762.02 398.438 1826.09 346.248 1861.08 246.004C1891.22 159.654 1888.34 74.1306 1861.08 8.41425C1831.91 -61.9168 1774.81 -109.561 1700.37 -111.251C1625.69 -112.947 1533.55 -68.3776 1434.65 45.9602C1369.45 121.345 1325.29 -54.0641 1208.48 -36.133C1091.67 -18.202 1075.43 151.046 1005.45 101.957C883.893 16.6865 820.563 -57.8717 763.282 -206.906Z" stroke="url(#paint0_linear_21_3)" stroke-opacity="0.5"/>
<path d="M999.232 487.224C991.789 467.689 957.1 472.816 955.345 493.988C953.346 518.093 965.531 549.506 964.122 573.669C961.403 620.323 944.921 633.603 912.104 658.193C900.341 666.992 892.848 681.11 889.971 695.625C884.924 721.091 894.083 747.778 919.314 749.105C931.945 749.77 948.603 744.08 969.522 728.7C978.875 721.824 987.123 716.157 994.453 711.575C1026.36 690.031 1056.06 706.912 1066.92 718.046C1074.11 727.18 1082.35 738.263 1094.13 749.658C1114.81 769.668 1146.13 767.046 1144.33 744.055C1141.78 711.575 1086.32 590.336 1144.33 569.196C1171.27 559.376 1170.38 537.131 1166.24 527.043C1161.8 516.246 1153.11 508.932 1141.78 508.672C1130.41 508.412 1111.58 527.043 1101.34 532.807C1063.53 554.085 1029.78 565.084 999.232 487.224Z" stroke="url(#paint1_linear_21_3)" stroke-opacity="0.5"/>
<path d="M552.795 -88.1935C517.358 -318.848 738.473 -261.35 783.313 -144.693C838.21 -2.07352 898.902 64.7684 1012.94 140.429C1077.08 184.831 1092.52 30.2959 1199.48 13.4996C1306.44 -3.29674 1347.3 155.879 1407.14 87.3045C1498.15 -16.6988 1582.78 -56.5886 1651.14 -54.0716C1719.05 -52.0788 1771.12 -8.00183 1797.43 56.713C1821.99 117.229 1824.02 195.764 1795.37 274.769C1757.98 368.68 1703.99 427.133 1649.15 474.927C1577.52 534.382 1675.91 600.051 1662.87 741.29C1649.83 882.528 1543.5 878.253 1584.83 987.495C1649.81 1158.58 1668.32 1279.09 1657.34 1358.16C1634.98 1526.92 1479.46 1508.82 1354.65 1389.97C1283.07 1322.18 1232.37 1256.6 1187.95 1203.43C1126.86 1127.71 1046.29 1270.96 969.021 1268.12C833.947 1262.76 863.417 1097.91 749.863 1168.09C705.28 1195.54 655.304 1229.24 598.81 1269.96C471.444 1360.99 371.017 1392.31 295.962 1386.07C145.244 1377.55 90.7185 1218.74 121.231 1067.24C138.768 980.631 184.002 896.441 254.864 843.896C332.555 786.283 469.114 741.154 513.471 635.693C547.212 557.298 335.339 453.543 391.702 305.233C427.555 210.211 544.896 169.249 550.993 95.5913C557.629 15.4155 557.859 -50.2618 552.795 -88.1935Z" stroke="url(#paint2_linear_21_3)" stroke-opacity="0.5"/>
<path d="M595.066 -30.4245C564.173 -237.607 764.117 -185.641 804.821 -79.9623C857.255 55.7607 915.22 114.669 1021.58 180.476C1079.78 220.046 1094.39 80.7314 1191.34 65.1258C1288.29 49.5202 1325.8 191.942 1380.2 130.402C1463.2 37.0745 1540.19 1.9933 1602.12 5.32143C1663.41 7.60951 1710.37 47.9732 1733.77 106.858C1755.61 161.974 1756.78 233.261 1729.66 304.662C1690.23 391.049 1647.21 455.518 1598.13 501.633C1533.8 556.138 1621.56 615.717 1608.81 742.595C1596.06 869.472 1499.12 865.205 1535.27 962.27C1592.54 1114.71 1608.36 1221.78 1597.77 1291.85C1577.11 1442.77 1436.21 1425.84 1322.66 1318.87C1257.01 1257.73 1209.86 1198.98 1168.31 1152.33C1112.63 1084.81 1039.33 1213.95 968.892 1212.09C846.349 1208.03 871.918 1060.58 768.942 1123.91C728.004 1148.87 682.32 1179.24 630.872 1215.76C513.785 1297.33 422.537 1322.8 355.531 1314.68C220.106 1306.31 171.321 1163.06 199.136 1026.43C215.281 948.057 256.45 871.92 320.777 824.321C393.94 770.173 518.421 728.351 558.591 629.071C589.012 557.507 398.166 463.001 448.602 328.503C480.589 241.836 585.881 203.696 591.465 136.387C597.521 63.373 598.639 3.77013 595.066 -30.4245Z" stroke="url(#paint3_linear_21_3)" stroke-opacity="0.5"/>
<path d="M635.511 25.0126C609.115 -159.455 788.195 -112.83 824.827 -17.7467C874.881 111.559 930.21 162.751 1029.05 218.949C1081.41 253.832 1095.22 129.231 1182.31 114.76C1269.4 100.289 1303.62 226.478 1352.65 171.748C1427.76 88.7552 1497.23 58.3531 1552.83 62.5022C1607.6 65.0928 1649.53 101.889 1670.05 155.157C1689.19 205.073 1689.51 269.369 1663.88 333.427C1622.34 412.601 1590.23 483.296 1546.85 527.894C1489.7 577.645 1566.97 631.349 1554.49 744.329C1542.02 857.309 1454.32 853.034 1485.32 938.279C1534.97 1072.63 1548.13 1166.66 1537.91 1227.99C1518.93 1361.63 1392.43 1345.79 1289.97 1250.31C1230.13 1195.6 1186.47 1143.47 1147.73 1103.16C1097.37 1043.6 1031.23 1159.1 967.512 1158.2C857.311 1155.44 879.017 1024.85 786.46 1081.54C749.104 1104.11 707.64 1131.27 661.161 1163.72C554.172 1236.14 471.961 1255.85 412.901 1245.83C292.56 1237.58 249.44 1109.36 274.602 987.113C289.379 916.682 326.546 848.323 384.438 805.495C453.188 754.621 565.784 715.955 601.829 622.503C628.975 557.512 458.862 471.914 503.448 350.739C531.619 272.115 625.024 236.658 630.103 175.455C635.59 109.339 637.598 55.5947 635.511 25.0126Z" stroke="url(#paint4_linear_21_3)" stroke-opacity="0.5"/>
<path d="M677.763 80.4466C655.911 -81.2976 813.809 -40.0169 846.304 44.4701C893.889 167.369 946.485 210.841 1037.64 257.423C1084.06 287.617 1097.04 177.733 1174.12 164.396C1251.19 151.06 1282.05 261.009 1325.63 213.092C1392.72 140.437 1454.55 114.717 1503.72 119.689C1551.87 122.583 1588.69 155.812 1606.31 203.463C1622.71 248.178 1622.17 305.484 1598.08 362.195C1554.51 434.158 1533.37 511.102 1495.75 554.187C1445.9 599.185 1512.54 647.014 1500.35 746.092C1488.17 845.169 1409.87 840.886 1435.68 914.305C1477.62 1030.56 1488.1 1111.54 1478.26 1164.12C1460.98 1280.48 1349.11 1265.74 1257.93 1181.75C1204.01 1133.47 1163.91 1087.96 1128.04 1053.99C1083.09 1002.4 1024.23 1104.26 967.348 1104.32C869.684 1102.86 887.489 989.138 805.516 1039.19C771.808 1059.36 734.638 1083.3 693.208 1111.68C596.506 1174.94 523.479 1188.9 472.47 1176.96C367.429 1168.84 330.05 1055.66 352.513 947.792C365.897 885.309 398.996 824.728 450.351 786.674C514.566 739.069 615.076 703.558 646.933 615.929C670.757 557.511 521.679 480.82 560.336 372.971C584.639 302.389 665.991 269.615 670.557 214.519C675.465 155.301 678.359 107.415 677.763 80.4466Z" stroke="url(#paint5_linear_21_3)" stroke-opacity="0.5"/>
<path d="M719.998 138.491C702.688 -0.169735 839.4 35.6754 867.757 109.376C912.865 225.59 962.72 261.246 1046.17 298.109C1086.65 323.546 1098.81 228.625 1165.86 216.453C1232.92 204.281 1260.43 297.746 1298.56 256.748C1357.62 194.594 1411.81 173.612 1454.55 179.396C1496.07 182.587 1527.78 212.173 1542.49 254.101C1556.16 293.515 1554.77 343.701 1532.22 392.94C1486.63 457.529 1476.44 540.543 1444.59 582.018C1402.03 622.161 1458.04 664.008 1446.15 748.962C1434.27 833.916 1365.36 829.635 1385.99 891.064C1420.22 988.966 1428.02 1056.71 1418.57 1100.43C1403 1199.24 1305.75 1185.64 1225.85 1113.33C1177.86 1071.59 1141.32 1032.8 1108.32 1005.24C1068.79 961.732 1017.21 1049.72 967.166 1050.75C882.043 1050.58 895.948 953.988 824.561 997.296C794.504 1015.02 761.63 1035.69 725.252 1059.93C638.844 1113.9 575.004 1122.07 532.045 1108.25C442.303 1100.28 410.665 1002.38 430.43 909.134C442.419 854.738 471.449 802.072 516.264 768.875C575.936 724.648 664.356 692.373 692.023 610.764C712.524 559.05 584.484 491.438 617.212 397.158C637.649 334.776 706.947 304.758 711 255.892C715.327 203.705 719.106 161.786 719.998 138.491Z" stroke="url(#paint6_linear_21_3)" stroke-opacity="0.5"/>
<path d="M760.402 193.925C747.599 77.9994 863.409 108.499 887.687 171.6C930.413 281.418 977.631 309.347 1053.56 336.585C1088.18 357.331 1099.54 277.133 1156.71 266.095C1213.89 255.057 1238.1 332.273 1270.86 298.091C1322.02 246.281 1368.67 229.985 1405.07 236.594C1440.06 240.09 1466.72 266.108 1478.56 302.417C1489.52 336.629 1487.28 379.823 1466.22 421.712C1418.51 479.09 1419.26 568.378 1393.11 608.347C1357.76 643.737 1403.25 679.706 1391.64 750.75C1380.02 821.795 1320.36 817.505 1335.85 867.101C1362.45 946.895 1367.58 1001.58 1358.49 1036.54C1344.6 1118.06 1261.78 1105.55 1192.99 1044.75C1150.82 1009.45 1117.77 977.274 1087.59 956.064C1053.38 920.521 1008.98 994.865 965.667 996.859C892.908 997.992 902.942 918.275 841.993 954.944C815.524 970.27 786.877 987.721 755.476 1007.89C679.182 1052.69 624.394 1055.1 589.397 1039.37C514.768 1031.51 488.806 948.657 505.912 869.802C516.532 823.356 541.553 778.471 579.921 750.05C635.175 709.089 711.689 679.969 735.224 604.176C752.445 559.036 645.176 500.334 672.043 419.384C688.656 365.046 746.045 337.71 749.592 294.951C753.349 249.664 758.021 213.605 760.402 193.925Z" stroke="url(#paint7_linear_21_3)" stroke-opacity="0.5"/>
<path d="M802.585 249.356C794.321 156.182 888.924 181.333 909.058 233.828C949.287 337.274 993.74 357.467 1061.94 375.064C1090.62 391.113 1101.13 325.648 1148.28 315.744C1195.43 305.839 1216.27 366.792 1243.57 339.431C1286.7 297.972 1325.7 286.369 1355.66 293.808C1384.02 297.61 1405.56 320.061 1414.49 350.75C1422.73 379.759 1419.63 415.957 1400.12 450.493C1350.43 500.661 1362.1 596.272 1341.73 634.744C1313.67 665.38 1348.54 695.47 1337.22 752.594C1325.91 809.718 1275.66 805.418 1285.97 843.167C1304.86 904.835 1307.31 946.449 1298.62 972.646C1286.43 1036.85 1218.26 1025.44 1160.77 976.144C1124.54 947.281 1095.06 921.736 1067.77 906.882C1038.98 879.315 1001.87 940.004 965.408 942.967C905.205 945.401 911.343 882.578 860.992 912.605C838.181 925.532 813.839 939.763 787.496 955.859C721.52 991.489 675.931 988.121 648.986 970.456C589.666 962.722 569.448 894.917 583.851 830.46C593.072 791.969 614.019 754.87 645.838 731.225C696.526 693.525 760.93 667.557 780.272 597.569C794.167 559.005 707.952 509.214 728.887 441.6C741.633 395.308 786.961 370.651 789.994 333.999C793.17 295.614 798.721 265.418 802.585 249.356Z" stroke="url(#paint8_linear_21_3)" stroke-opacity="0.5"/>
<path d="M843.585 304.783C839.823 234.391 913.729 254.188 929.829 296.069C967.796 393.176 1009.74 405.615 1070.6 413.548C1093.49 424.892 1103.23 374.177 1140.61 365.404C1177.98 356.63 1195.58 401.296 1217.57 380.766C1252.9 349.673 1284.45 342.772 1308.13 351.048C1330.02 355.16 1346.56 374.043 1352.63 399.108C1358.17 422.911 1354.21 452.109 1336.13 479.285C1284.16 522.245 1306.85 624.253 1292.15 661.243C1271.24 687.126 1295.65 711.332 1284.57 754.518C1273.49 797.703 1232.39 793.391 1237.55 819.271C1248.83 862.782 1248.61 891.299 1240.26 908.715C1229.72 955.582 1175.82 945.264 1129.31 907.492C1098.81 885.074 1072.75 866.167 1048.19 857.683C1024.66 838.105 994.637 885.123 964.826 889.06C916.853 892.802 919.12 846.9 879.095 870.277L877.986 870.883C859.042 881.225 839.232 892.041 818.215 903.824C762.187 930.271 725.548 921.102 706.516 901.493C662.192 893.876 647.612 841.138 659.39 791.095C667.265 760.565 684.251 731.259 709.696 712.396C756.109 677.947 808.758 655.129 824.01 590.928C834.653 558.941 769.032 518.067 784.146 463.8C793.09 425.556 826.597 403.574 829.133 373.031C831.745 341.551 838.212 317.224 843.585 304.783Z" stroke="url(#paint9_linear_21_3)" stroke-opacity="0.5"/>
<path d="M885.667 362.898C886.441 315.597 939.072 329.954 951.014 361.034C986.433 451.362 1025.56 455.996 1078.61 454.233C1095.53 460.823 1104.44 425.082 1131.75 417.479C1159.06 409.877 1173.26 438.059 1189.78 424.451C1217.03 403.861 1240.9 401.691 1258.12 410.765C1273.36 415.168 1284.78 430.399 1287.93 449.729C1290.74 468.22 1285.93 490.287 1269.43 509.983C1215.55 545.544 1249.12 653.479 1240.2 688.821C1226.6 709.835 1240.36 728.049 1229.6 757.107C1218.84 786.164 1187.19 781.859 1187.18 795.759C1190.74 820.924 1187.85 836.221 1179.9 844.781C1171.09 874.104 1131.88 864.927 1096.71 838.844C1072.19 822.971 1049.73 810.783 1028.08 808.705C1010.01 797.202 987.302 830.342 964.37 835.235C928.998 840.267 927.374 811.485 897.985 828.109C882.385 836.188 866.536 843.923 850.189 851.802C804.54 868.949 777.135 854.025 766.168 832.562C737.188 825.096 728.361 787.659 737.424 752.25C743.893 729.816 756.787 708.434 775.659 694.434C817.447 663.394 857.935 643.827 868.978 585.703C876.287 560.436 831.775 528.66 840.946 487.98C846.017 457.956 867.438 438.747 869.457 414.45C871.486 390.015 878.821 371.663 885.667 362.898Z" stroke="url(#paint10_linear_21_3)" stroke-opacity="0.5"/>
<path d="M928.37 418.401C933.659 394.025 965.185 402.986 973.003 423.363C1005.93 507.117 1042.3 503.978 1087.66 492.544C1098.66 494.409 1106.73 473.522 1124.06 467.072C1141.39 460.622 1152.24 472.428 1163.32 465.692C1182.58 455.531 1198.83 458.074 1209.64 467.963C1218.28 472.665 1224.61 484.285 1224.87 497.937C1224.96 511.17 1219.31 526.174 1204.35 538.451C1148.51 566.707 1192.94 680.772 1189.76 714.542C1183.42 730.744 1186.61 743.022 1176.15 758.054C1165.7 773.085 1143.41 768.777 1138.24 770.762C1134.14 777.687 1128.58 779.836 1121.03 779.584C1113.92 791.478 1089.29 783.418 1065.36 768.935C1046.75 759.555 1027.85 754.043 1009.08 758.346C996.403 754.87 980.954 774.242 964.84 780.097C941.964 786.425 936.464 774.654 917.624 784.58C905.666 790.234 894.101 794.723 882.79 798.496C847.412 806.407 829.162 785.714 826.208 762.359C812.462 755.028 809.351 732.769 815.722 711.878C820.799 697.471 829.638 683.944 841.993 674.766C879.23 647.059 907.664 630.695 914.534 578.511C918.533 559.892 894.972 537.122 898.242 509.905C899.465 488.014 908.885 471.531 910.391 453.412C911.842 435.95 920.051 423.518 928.37 418.401Z" stroke="url(#paint11_linear_21_3)" stroke-opacity="0.5"/>
</g>
<defs>
<linearGradient id="paint0_linear_21_3" x1="959.811" y1="-318" x2="959.811" y2="1559" gradientUnits="userSpaceOnUse">
<stop stop-color="#004F88"/>
<stop offset="1" stop-color="#7500EB"/>
</linearGradient>
<linearGradient id="paint1_linear_21_3" x1="1028.53" y1="475.018" x2="1028.53" y2="763.129" gradientUnits="userSpaceOnUse">
<stop stop-color="#004F88"/>
<stop offset="1" stop-color="#7500EB"/>
</linearGradient>
<linearGradient id="paint2_linear_21_3" x1="964.72" y1="-246.685" x2="964.72" y2="1481.98" gradientUnits="userSpaceOnUse">
<stop stop-color="#004F88"/>
<stop offset="1" stop-color="#7500EB"/>
</linearGradient>
<linearGradient id="paint3_linear_21_3" x1="970.855" y1="-172.518" x2="970.855" y2="1402.11" gradientUnits="userSpaceOnUse">
<stop stop-color="#004F88"/>
<stop offset="1" stop-color="#7500EB"/>
</linearGradient>
<linearGradient id="paint4_linear_21_3" x1="975.764" y1="-101.204" x2="975.764" y2="1325.09" gradientUnits="userSpaceOnUse">
<stop stop-color="#004F88"/>
<stop offset="1" stop-color="#7500EB"/>
</linearGradient>
<linearGradient id="paint5_linear_21_3" x1="981.899" y1="-29.889" x2="981.899" y2="1248.07" gradientUnits="userSpaceOnUse">
<stop stop-color="#004F88"/>
<stop offset="1" stop-color="#7500EB"/>
</linearGradient>
<linearGradient id="paint6_linear_21_3" x1="988.035" y1="44.2781" x2="988.035" y2="1171.05" gradientUnits="userSpaceOnUse">
<stop stop-color="#004F88"/>
<stop offset="1" stop-color="#7500EB"/>
</linearGradient>
<linearGradient id="paint7_linear_21_3" x1="992.943" y1="115.593" x2="992.943" y2="1094.03" gradientUnits="userSpaceOnUse">
<stop stop-color="#004F88"/>
<stop offset="1" stop-color="#7500EB"/>
</linearGradient>
<linearGradient id="paint8_linear_21_3" x1="999.079" y1="186.907" x2="999.079" y2="1017.01" gradientUnits="userSpaceOnUse">
<stop stop-color="#004F88"/>
<stop offset="1" stop-color="#7500EB"/>
</linearGradient>
<linearGradient id="paint9_linear_21_3" x1="1005.21" y1="258.222" x2="1005.21" y2="939.989" gradientUnits="userSpaceOnUse">
<stop stop-color="#004F88"/>
<stop offset="1" stop-color="#7500EB"/>
</linearGradient>
<linearGradient id="paint10_linear_21_3" x1="1011.35" y1="332.389" x2="1011.35" y2="862.97" gradientUnits="userSpaceOnUse">
<stop stop-color="#004F88"/>
<stop offset="1" stop-color="#7500EB"/>
</linearGradient>
<linearGradient id="paint11_linear_21_3" x1="1018.71" y1="403.704" x2="1018.71" y2="800.213" gradientUnits="userSpaceOnUse">
<stop stop-color="#004F88"/>
<stop offset="1" stop-color="#7500EB"/>
</linearGradient>
<clipPath id="clip0_21_3">
<rect width="1920" height="1080" fill="white"/>
</clipPath>
</defs>
</svg>
