<svg width="754" height="732" viewBox="0 0 754 732" fill="none" xmlns="http://www.w3.org/2000/svg">
<path opacity="0.0526316" d="M58.5825 591.015C74.4919 612.181 125.34 647.6 201.457 619.946C296.604 585.38 333.403 493.753 418.323 446.244C481 411.178 649.416 358.542 746.258 416.705" stroke="url(#paint0_linear_13_2)" stroke-width="2"/>
<path opacity="0.105263" d="M42.89 546.642C56.4998 569.355 103.367 609.895 181.958 590.349C280.197 565.918 326.371 478.64 415.792 440.267C481.791 411.945 654.787 377.202 745.019 445.169" stroke="url(#paint1_linear_13_2)" stroke-width="2"/>
<path opacity="0.157895" d="M31.0349 501.671C42.1959 525.682 84.5689 570.899 164.772 559.676C265.027 545.647 320.071 463.673 413.013 434.858C481.611 413.589 657.291 397.12 739.924 474.146" stroke="url(#paint2_linear_13_2)" stroke-width="2"/>
<path opacity="0.210526" d="M23.0586 456.505C31.6486 481.552 69.063 530.95 150 528.172C251.172 524.699 314.484 448.928 409.928 429.985C480.374 416.004 656.812 417.988 730.941 503.231" stroke="url(#paint3_linear_13_2)" stroke-width="2"/>
<path opacity="0.263158" d="M18.96 411.552C24.8849 437.359 56.9308 490.398 137.715 496.095C238.695 503.216 309.581 434.479 406.483 425.616C478.004 419.075 653.268 439.492 718.081 532.015" stroke="url(#paint4_linear_13_2)" stroke-width="2"/>
<path opacity="0.315789" d="M18.6959 367.215C21.8908 393.5 48.2171 449.598 127.963 463.708C227.646 481.346 305.328 420.394 402.625 421.71C474.438 422.681 646.609 461.305 701.395 560.096" stroke="url(#paint5_linear_13_2)" stroke-width="2"/>
<path opacity="0.368421" d="M22.1809 323.892C22.6107 350.367 42.929 408.909 120.763 431.278C218.056 459.239 301.684 406.741 398.311 418.22C469.629 426.692 636.819 483.101 680.978 587.078" stroke="url(#paint6_linear_13_2)" stroke-width="2"/>
<path opacity="0.421053" d="M29.2886 281.969C26.9487 308.344 41.0364 368.69 116.106 399.072C209.944 437.049 298.6 393.581 393.498 415.097C463.54 430.977 623.918 504.553 656.967 612.577" stroke="url(#paint7_linear_13_2)" stroke-width="2"/>
<path opacity="0.473684" d="M39.8521 241.818C34.7681 267.804 42.4707 329.291 113.954 367.354C203.307 414.932 296.022 380.969 388.151 412.286C456.149 435.401 607.957 525.338 629.534 636.225" stroke="url(#paint8_linear_13_2)" stroke-width="2"/>
<path opacity="0.526316" d="M53.6676 203.789C45.8952 229.101 47.1285 291.057 114.241 336.383C198.132 393.041 293.889 368.954 382.24 409.731C447.449 439.826 589.025 545.14 598.892 657.674" stroke="url(#paint9_linear_13_2)" stroke-width="2"/>
<path opacity="0.578947" d="M70.496 168.211C60.1203 192.572 54.8707 254.317 116.878 306.41C194.387 371.526 292.137 357.581 375.742 407.369C437.448 444.116 567.24 563.651 565.29 676.6" stroke="url(#paint10_linear_13_2)" stroke-width="2"/>
<path opacity="0.631579" d="M90.0643 135.386C77.199 158.529 65.524 219.387 121.746 277.676C192.024 350.537 290.697 346.887 368.639 405.141C426.166 448.137 542.752 580.584 529.007 692.71" stroke="url(#paint11_linear_13_2)" stroke-width="2"/>
<path opacity="0.684211" d="M112.069 105.585C96.8555 127.256 78.8831 186.56 128.704 250.407C190.981 330.215 289.495 336.899 360.921 402.981C413.638 451.755 515.741 595.663 490.351 705.738" stroke="url(#paint12_linear_13_2)" stroke-width="2"/>
<path opacity="0.736842" d="M136.182 79.0446C118.787 99.007 94.7136 156.108 137.588 224.813C191.182 310.693 288.457 327.638 352.584 400.824C399.915 454.841 486.416 608.633 449.658 715.452" stroke="url(#paint13_linear_13_2)" stroke-width="2"/>
<path opacity="0.789474" d="M162.05 55.97C142.663 74.0047 112.753 128.277 148.211 201.086C192.534 292.099 287.505 319.118 343.631 398.607C385.056 457.275 455.008 619.267 407.286 721.658" stroke="url(#paint14_linear_13_2)" stroke-width="2"/>
<path opacity="0.842105" d="M189.302 36.5238C168.136 52.4332 132.717 103.281 160.37 179.399C194.937 274.545 286.563 311.344 334.073 396.264C369.139 458.941 421.774 627.357 363.611 724.199" stroke="url(#paint15_linear_13_2)" stroke-width="2"/>
<path opacity="0.894737" d="M217.549 20.8315C194.836 34.4412 154.296 81.3085 173.842 159.899C198.273 258.138 285.552 304.313 323.924 393.733C352.247 459.733 386.989 632.728 319.022 722.96" stroke="url(#paint16_linear_13_2)" stroke-width="2"/>
<path opacity="0.947368" d="M246.396 8.97643C222.384 20.1375 177.168 62.5104 188.391 142.714C202.42 242.968 284.394 298.013 313.209 390.955C334.477 459.553 350.947 635.232 273.92 717.865" stroke="url(#paint17_linear_13_2)" stroke-width="2"/>
<path d="M275.436 1C250.39 9.59004 200.992 47.0044 203.77 127.942C207.243 229.113 283.013 292.425 301.956 387.87C315.937 458.315 313.953 634.754 228.711 708.883" stroke="url(#paint18_linear_13_2)" stroke-width="2"/>
<defs>
<linearGradient id="paint0_linear_13_2" x1="64.5691" y1="609.44" x2="737.806" y2="390.692" gradientUnits="userSpaceOnUse">
<stop stop-color="#7D7D7D" stop-opacity="0.06"/>
<stop offset="0.489583" stop-color="#0997FF"/>
<stop offset="1" stop-color="#5200FF" stop-opacity="0.22"/>
</linearGradient>
<linearGradient id="paint1_linear_13_2" x1="46.9179" y1="565.591" x2="739.332" y2="418.414" gradientUnits="userSpaceOnUse">
<stop stop-color="#7D7D7D" stop-opacity="0.06"/>
<stop offset="0.489583" stop-color="#0997FF"/>
<stop offset="1" stop-color="#5200FF" stop-opacity="0.22"/>
</linearGradient>
<linearGradient id="paint2_linear_13_2" x1="33.0599" y1="520.938" x2="737.065" y2="446.944" gradientUnits="userSpaceOnUse">
<stop stop-color="#7D7D7D" stop-opacity="0.06"/>
<stop offset="0.489583" stop-color="#0997FF"/>
<stop offset="1" stop-color="#5200FF" stop-opacity="0.22"/>
</linearGradient>
<linearGradient id="paint3_linear_13_2" x1="23.0586" y1="475.878" x2="730.941" y2="475.878" gradientUnits="userSpaceOnUse">
<stop stop-color="#7D7D7D" stop-opacity="0.06"/>
<stop offset="0.489583" stop-color="#0997FF"/>
<stop offset="1" stop-color="#5200FF" stop-opacity="0.22"/>
</linearGradient>
<linearGradient id="paint4_linear_13_2" x1="16.9349" y1="430.819" x2="720.94" y2="504.813" gradientUnits="userSpaceOnUse">
<stop stop-color="#7D7D7D" stop-opacity="0.06"/>
<stop offset="0.489583" stop-color="#0997FF"/>
<stop offset="1" stop-color="#5200FF" stop-opacity="0.22"/>
</linearGradient>
<linearGradient id="paint5_linear_13_2" x1="14.668" y1="386.165" x2="707.082" y2="533.342" gradientUnits="userSpaceOnUse">
<stop stop-color="#7D7D7D" stop-opacity="0.06"/>
<stop offset="0.489583" stop-color="#0997FF"/>
<stop offset="1" stop-color="#5200FF" stop-opacity="0.22"/>
</linearGradient>
<linearGradient id="paint6_linear_13_2" x1="16.1943" y1="342.317" x2="689.431" y2="561.065" gradientUnits="userSpaceOnUse">
<stop stop-color="#7D7D7D" stop-opacity="0.06"/>
<stop offset="0.489583" stop-color="#0997FF"/>
<stop offset="1" stop-color="#5200FF" stop-opacity="0.22"/>
</linearGradient>
<linearGradient id="paint7_linear_13_2" x1="21.4089" y1="299.668" x2="668.092" y2="587.589" gradientUnits="userSpaceOnUse">
<stop stop-color="#7D7D7D" stop-opacity="0.06"/>
<stop offset="0.489583" stop-color="#0997FF"/>
<stop offset="1" stop-color="#5200FF" stop-opacity="0.22"/>
</linearGradient>
<linearGradient id="paint8_linear_13_2" x1="30.1656" y1="258.596" x2="643.21" y2="612.537" gradientUnits="userSpaceOnUse">
<stop stop-color="#7D7D7D" stop-opacity="0.06"/>
<stop offset="0.489583" stop-color="#0997FF"/>
<stop offset="1" stop-color="#5200FF" stop-opacity="0.22"/>
</linearGradient>
<linearGradient id="paint9_linear_13_2" x1="42.2805" y1="219.462" x2="614.97" y2="635.545" gradientUnits="userSpaceOnUse">
<stop stop-color="#7D7D7D" stop-opacity="0.06"/>
<stop offset="0.489583" stop-color="#0997FF"/>
<stop offset="1" stop-color="#5200FF" stop-opacity="0.22"/>
</linearGradient>
<linearGradient id="paint10_linear_13_2" x1="57.5329" y1="182.608" x2="583.592" y2="656.274" gradientUnits="userSpaceOnUse">
<stop stop-color="#7D7D7D" stop-opacity="0.06"/>
<stop offset="0.489583" stop-color="#0997FF"/>
<stop offset="1" stop-color="#5200FF" stop-opacity="0.22"/>
</linearGradient>
<linearGradient id="paint11_linear_13_2" x1="75.6673" y1="148.349" x2="549.333" y2="674.408" gradientUnits="userSpaceOnUse">
<stop stop-color="#7D7D7D" stop-opacity="0.06"/>
<stop offset="0.489583" stop-color="#0997FF"/>
<stop offset="1" stop-color="#5200FF" stop-opacity="0.22"/>
</linearGradient>
<linearGradient id="paint12_linear_13_2" x1="96.3963" y1="116.972" x2="512.479" y2="689.661" gradientUnits="userSpaceOnUse">
<stop stop-color="#7D7D7D" stop-opacity="0.06"/>
<stop offset="0.489583" stop-color="#0997FF"/>
<stop offset="1" stop-color="#5200FF" stop-opacity="0.22"/>
</linearGradient>
<linearGradient id="paint13_linear_13_2" x1="119.405" y1="88.7311" x2="473.346" y2="701.776" gradientUnits="userSpaceOnUse">
<stop stop-color="#7D7D7D" stop-opacity="0.06"/>
<stop offset="0.489583" stop-color="#0997FF"/>
<stop offset="1" stop-color="#5200FF" stop-opacity="0.22"/>
</linearGradient>
<linearGradient id="paint14_linear_13_2" x1="144.352" y1="63.8498" x2="432.274" y2="710.533" gradientUnits="userSpaceOnUse">
<stop stop-color="#7D7D7D" stop-opacity="0.06"/>
<stop offset="0.489583" stop-color="#0997FF"/>
<stop offset="1" stop-color="#5200FF" stop-opacity="0.22"/>
</linearGradient>
<linearGradient id="paint15_linear_13_2" x1="170.877" y1="42.5104" x2="389.625" y2="715.747" gradientUnits="userSpaceOnUse">
<stop stop-color="#7D7D7D" stop-opacity="0.06"/>
<stop offset="0.489583" stop-color="#0997FF"/>
<stop offset="1" stop-color="#5200FF" stop-opacity="0.22"/>
</linearGradient>
<linearGradient id="paint16_linear_13_2" x1="198.6" y1="24.8593" x2="345.777" y2="717.273" gradientUnits="userSpaceOnUse">
<stop stop-color="#7D7D7D" stop-opacity="0.06"/>
<stop offset="0.489583" stop-color="#0997FF"/>
<stop offset="1" stop-color="#5200FF" stop-opacity="0.22"/>
</linearGradient>
<linearGradient id="paint17_linear_13_2" x1="227.129" y1="11.0015" x2="301.123" y2="715.006" gradientUnits="userSpaceOnUse">
<stop stop-color="#7D7D7D" stop-opacity="0.06"/>
<stop offset="0.489583" stop-color="#0997FF"/>
<stop offset="1" stop-color="#5200FF" stop-opacity="0.22"/>
</linearGradient>
<linearGradient id="paint18_linear_13_2" x1="256.063" y1="1" x2="256.063" y2="708.883" gradientUnits="userSpaceOnUse">
<stop stop-color="#7D7D7D" stop-opacity="0.06"/>
<stop offset="0.489583" stop-color="#0997FF"/>
<stop offset="1" stop-color="#5200FF" stop-opacity="0.22"/>
</linearGradient>
</defs>
</svg>
