<svg width="128" height="128" viewBox="0 0 128 128" fill="none" xmlns="http://www.w3.org/2000/svg">
<path fill-rule="evenodd" clip-rule="evenodd" d="M34.5 41.9633C34.5 25.1186 48.1553 11.4633 65 11.4633C81.8447 11.4633 95.5 25.1186 95.5 41.9633V85.9633C95.5 102.808 81.8447 116.463 65 116.463C48.1553 116.463 34.5 102.808 34.5 85.9633V41.9633ZM65 12.4633C48.7076 12.4633 35.5 25.6709 35.5 41.9633V85.9633C35.5 102.256 48.7076 115.463 65 115.463C81.2924 115.463 94.5 102.256 94.5 85.9633V41.9633C94.5 25.6709 81.2924 12.4633 65 12.4633Z" fill="white"/>
<path fill-rule="evenodd" clip-rule="evenodd" d="M34.5 41.9633C34.5 25.1186 48.1553 11.4633 65 11.4633C81.8447 11.4633 95.5 25.1186 95.5 41.9633V73.9633C95.5 90.8079 81.8447 104.463 65 104.463C48.1553 104.463 34.5 90.8079 34.5 73.9633V41.9633ZM65 12.4633C48.7076 12.4633 35.5 25.6709 35.5 41.9633V73.9633C35.5 90.2557 48.7076 103.463 65 103.463C81.2924 103.463 94.5 90.2557 94.5 73.9633V41.9633C94.5 25.6709 81.2924 12.4633 65 12.4633Z" fill="white"/>
<path fill-rule="evenodd" clip-rule="evenodd" d="M65 11.4633C65.2761 11.4633 65.5 11.6871 65.5 11.9633V22.8304C65.5 23.1066 65.2761 23.3304 65 23.3304C64.7239 23.3304 64.5 23.1066 64.5 22.8304V11.9633C64.5 11.6871 64.7239 11.4633 65 11.4633ZM65 38.6351C65.2761 38.6351 65.5 38.859 65.5 39.1351V46.9633C65.5 47.2394 65.2761 47.4633 65 47.4633C64.7239 47.4633 64.5 47.2394 64.5 46.9633V39.1351C64.5 38.859 64.7239 38.6351 65 38.6351Z" fill="white"/>
<path fill-rule="evenodd" clip-rule="evenodd" d="M65 47.4633C63.5301 47.4633 62.5 48.4402 62.5 49.4633C62.5 50.4863 63.5301 51.4633 65 51.4633C66.4699 51.4633 67.5 50.4863 67.5 49.4633C67.5 48.4402 66.4699 47.4633 65 47.4633ZM61.5 49.4633C61.5 47.7249 63.1562 46.4633 65 46.4633C66.8438 46.4633 68.5 47.7249 68.5 49.4633C68.5 51.2016 66.8438 52.4633 65 52.4633C63.1562 52.4633 61.5 51.2016 61.5 49.4633Z" fill="white"/>
<path fill-rule="evenodd" clip-rule="evenodd" d="M59.5 26.9633C59.5 24.478 61.5147 22.4633 64 22.4633H66C68.4853 22.4633 70.5 24.478 70.5 26.9633V34.9633C70.5 37.4485 68.4853 39.4633 66 39.4633H64C61.5147 39.4633 59.5 37.4485 59.5 34.9633V26.9633ZM64 23.4633C62.067 23.4633 60.5 25.0303 60.5 26.9633V34.9633C60.5 36.8963 62.067 38.4633 64 38.4633H66C67.933 38.4633 69.5 36.8963 69.5 34.9633V26.9633C69.5 25.0303 67.933 23.4633 66 23.4633H64Z" fill="white"/>
<path fill-rule="evenodd" clip-rule="evenodd" d="M61.5 27C61.5 25.6193 62.6193 24.5 64 24.5H66C67.3807 24.5 68.5 25.6193 68.5 27V36C68.5 37.3807 67.3807 38.5 66 38.5H64C62.6193 38.5 61.5 37.3807 61.5 36V27ZM64 25.5C63.1716 25.5 62.5 26.1716 62.5 27V36C62.5 36.8284 63.1716 37.5 64 37.5H66C66.8284 37.5 67.5 36.8284 67.5 36V27C67.5 26.1716 66.8284 25.5 66 25.5H64Z" fill="white"/>
</svg>
